<?xml version="1.0" encoding="utf-8"?>
<!-- Generator: Adobe Illustrator 19.0.0, SVG Export Plug-In . SVG Version: 6.00 Build 0)  -->
<svg version="1.1" id="Layer_1" xmlns="http://www.w3.org/2000/svg" xmlns:xlink="http://www.w3.org/1999/xlink" x="0px" y="0px"
	 viewBox="0 0 24.6 2.4" style="enable-background:new 0 0 24.6 2.4;" xml:space="preserve">
<style type="text/css">
	.st0{fill:#414142;}
</style>
<g>
	<path class="st0" d="M0,0.4C0.1,0.3,0.3,0.1,0.4,0l0.8,0.8L2,0c0.1,0.1,0.3,0.3,0.4,0.4L1.6,1.2L2.4,2C2.3,2.1,2.1,2.3,2,2.4
		L1.2,1.6L0.4,2.4C0.3,2.3,0.1,2.1,0,2l0.8-0.8L0,0.4z"/>
	<path class="st0" d="M11.1,0.4c0.1-0.1,0.3-0.3,0.4-0.4l0.8,0.8L13.1,0c0.1,0.1,0.3,0.3,0.4,0.4l-0.8,0.8L13.5,2
		c-0.1,0.2-0.3,0.3-0.4,0.4l-0.8-0.8l-0.8,0.8c-0.1-0.1-0.3-0.3-0.4-0.4l0.8-0.8L11.1,0.4z"/>
	<path class="st0" d="M22.3,0.4c0.1-0.1,0.3-0.3,0.4-0.4l0.8,0.8L24.2,0c0.1,0.1,0.3,0.3,0.4,0.4l-0.8,0.8L24.6,2
		c-0.1,0.2-0.3,0.3-0.4,0.4l-0.8-0.8l-0.8,0.8c-0.2-0.1-0.3-0.3-0.4-0.4L23,1.2L22.3,0.4z"/>
</g>
</svg>
