<?xml version="1.0" encoding="utf-8"?>
<!-- Generator: Adobe Illustrator 19.0.0, SVG Export Plug-In . SVG Version: 6.00 Build 0)  -->
<svg version="1.1" id="Layer_1" xmlns="http://www.w3.org/2000/svg" xmlns:xlink="http://www.w3.org/1999/xlink" x="0px" y="0px"
	 viewBox="0 0 812.6 73.1" style="enable-background:new 0 0 812.6 73.1;" xml:space="preserve">
<style type="text/css">
	.st0{fill:#D1D2D3;}
	.st1{fill:#FFDB00;}
	.st2{fill:#414142;}
</style>
<g id="XMLID_98_">
	<path id="XMLID_99_" class="st0" d="M0,37.1c0-6.6,2.5-13.2,7.7-18.5c-1.3,3.5-2,7.3-2,11.5c0,10.9,4.9,19.7,12.2,25l9.7,7.1
		c5.5,4,12.8,6.1,21.1,6.1c7.1,0,11.5-0.8,18-3.6l-10.3,5.1c-4.2,2.1-9.5,3.4-15.7,3.4C19.3,73.1,0,60.9,0,37.1z M33.7,34.6
		l-4.1,1.8v0.7c0,4,0.9,7.5,2.7,10.3c2.2,0.8,4.6,1.2,7.2,1.2c2,0,4.2-0.1,5.9-0.5v-0.9h-1.6l-10.2-7.1V34.6z M40.3,23.3
		c3.5,0,6.7,0.7,9.7,2.5L60.6,21c-4.5-1.9-8.5-2.7-13.4-2.7c-7.5,0-12,2.9-15.1,7.8C34.4,24.3,37.9,23.3,40.3,23.3z"/>
	<path id="XMLID_103_" class="st0" d="M86.1,60l10.2,7.1h35.9l-10.8,5H80.3V10.8l5.8-2.7V60z M109.8,24.2v-5h21.7l-10.8,5H109.8z
		 M109.8,47.7v-2.8h17.8l-10.8,2.8H109.8z"/>
	<path id="XMLID_107_" class="st0" d="M195.2,68.4c-6.1,3.1-11.7,4.7-18.7,4.7c-16.6,0-35.6-13-35.6-34.5c0-7.8,2.2-14,7.6-19.7
		c-1.3,3.4-1.9,7.9-1.9,11.1c0,10.4,4.6,19.6,13.1,25.5l9.8,6.8c5.6,3.9,10.7,5.7,18.3,5.7c4.8,0,10.2-1.2,14.7-3.4L195.2,68.4z
		 M187.8,18.4c2.4,0,4,0.2,5.6,0.7c2.1,3,3.3,6.7,3.3,11c0,4.1-1.1,7.7-3,10.6c-0.2-10.3-6.6-17.8-16.1-19.3
		C180.1,19.4,183.8,18.4,187.8,18.4z"/>
	<path id="XMLID_110_" class="st0" d="M229.6,10.8l5.8-2.7v52l10.2,7.1h11.5l-10.8,5h-16.7V10.8z M259.1,24v-5h6.8
		c0.2,0.8,0.2,1.7,0.2,2.6c0,3.6-1.3,6.1-3.8,7.7C261.9,27,260.7,25.2,259.1,24z M279.7,72.1h-14l-6.6-6.8V54.2l5.6,5.7l10.6,7.2
		h15.2L279.7,72.1z"/>
	<path id="XMLID_114_" class="st0" d="M296.2,37.1c0-6.6,2.5-13.2,7.7-18.5c-1.3,3.5-2,7.3-2,11.5c0,10.9,4.9,19.7,12.2,25l9.7,7.1
		c5.5,4,12.8,6.1,21.1,6.1c7.1,0,11.5-0.8,18-3.6l-10.3,5.1c-4.2,2.1-9.5,3.4-15.7,3.4C315.5,73.1,296.2,60.9,296.2,37.1z
		 M329.9,34.6l-4.1,1.8v0.7c0,4,0.9,7.5,2.7,10.3c2.2,0.8,4.6,1.2,7.2,1.2c2,0,4.2-0.1,5.9-0.5v-0.9h-1.6l-10.2-7.1V34.6z
		 M336.6,23.3c3.5,0,6.7,0.7,9.7,2.5l10.5-4.8c-4.5-1.9-8.5-2.7-13.4-2.7c-7.5,0-12,2.9-15.1,7.8C330.7,24.3,334.2,23.3,336.6,23.3z
		"/>
	<path id="XMLID_118_" class="st0" d="M382.3,60l10.2,7.1h35.9l-10.8,5h-41.2V10.8l5.8-2.7V60z M406,24.2v-5h21.7l-10.8,5H406z
		 M406,47.7v-2.8h17.8l-10.8,2.8H406z"/>
	<path id="XMLID_122_" class="st0" d="M471.4,49.9c1.9,5.1,5.5,8.5,10.7,10.5c6.5,6.1,11.1,7.8,17.3,7.8c2.7,0,5.9-0.6,8.6-2.1
		l-3.3,2c-5.1,3-9.5,5.1-14.8,5.1c-7.8,0-21.5-5.8-24.9-20.2L471.4,49.9z M495.3,8.1v34.4c0,3-0.9,4.5-2.2,5.4l-3.6-2.7V10.8
		L495.3,8.1z M508.1,66l0.2-0.1L508.1,66z"/>
	<path id="XMLID_126_" class="st0" d="M582.4,68.4c-6.1,3.1-11.7,4.7-18.7,4.7c-16.6,0-35.6-13-35.6-34.5c0-7.8,2.2-14,7.6-19.7
		c-1.3,3.4-1.9,7.9-1.9,11.1c0,10.4,4.6,19.6,13.1,25.5l9.8,6.8c5.6,3.9,10.7,5.7,18.3,5.7c4.8,0,10.2-1.2,14.7-3.4L582.4,68.4z
		 M575,18.4c2.4,0,4,0.2,5.6,0.7c2.1,3,3.3,6.7,3.3,11c0,4.1-1.1,7.7-3,10.6c-0.2-10.3-6.6-17.8-16.1-19.3
		C567.3,19.4,571,18.4,575,18.4z"/>
	<path id="XMLID_129_" class="st0" d="M616.8,10.8l5.8-2.7v52l10.2,7.1h11.5l-10.8,5h-16.7V10.8z M646.3,51.2V38.5L662.6,60
		l10.5,7.1h7.6l-10.8,5h-7.6L646.3,51.2z M653.2,10.8l5.8-2.7v20.6l-5.8-7.6V10.8z"/>
	<path id="XMLID_133_" class="st0" d="M701.7,60l10.2,7.1h35.9l-10.8,5h-41.2V10.8l5.8-2.7V60z M725.4,24.2v-5h21.7l-10.8,5H725.4z
		 M725.4,47.7v-2.8h17.8l-10.8,2.8H725.4z"/>
	<path id="XMLID_137_" class="st0" d="M763.8,16.2c0,6.7,3.3,11.4,10.6,16.3c5,3.8,7.8,5.5,10.8,7.2c1.9,1.1,3.8,2.6,4.5,3.7v0.3
		c0,2.6-1.5,4.3-3.6,4.7l-8.6-6H776l-7.4-5c-7.3-4.9-10.1-8.6-10.1-14.3c0-4.9,2.1-9.2,6.1-12.9C764.2,12.2,763.8,14.1,763.8,16.2z
		 M758.9,53.5l6.4-3.1c1.7,3.6,3.8,5.9,6.8,7.8l7.2,5.2c4.7,3.4,8.6,4.7,13.4,4.7c3.3,0,7.6-0.9,10.5-2.6
		c-6.7,5.1-11.9,7.5-18.1,7.5C775.2,73,762.9,64.5,758.9,53.5z M787.9,23.3c-0.2-0.5-0.3-1.2-0.3-1.8c0-1.6,0.5-3,1.8-3.8l9,6.5
		h11.5l-10,5h-1.7C795.5,26.9,791.8,25.1,787.9,23.3z"/>
</g>
<g id="XMLID_54_">
	<path id="XMLID_55_" class="st1" d="M38.6,11.4c4.9,0,9.4,0.9,14.7,3.6l4.1-10.5l8.1,5.6l-3.8,9.8c-5.4-2.3-9.8-3-14.7-3
		c-10.3,0-18.2,7.1-18.2,18.8c0,4.6,1.2,8.4,3.3,11.4c-6.6-2.6-11.4-8.6-11.4-17.2C20.6,18.4,28.4,11.4,38.6,11.4z M24.7,58.2
		c3.7,1.9,8.9,3,14.8,3c7.1,0,14.1-1.1,20.8-4.2V29.8l8.1,5.6v27.2c-6.6,3-13.5,4.1-20.5,4.1c-8.1,0-14.1-2-18.8-5.4L24.7,58.2z
		 M45.8,45.8h-1l-8-5.6h9V45.8z"/>
	<path id="XMLID_59_" class="st1" d="M125.3,60.2V49.7l8.1,5.6v10.4H97.2l-8-5.6H125.3z M124.6,12.2V1.8l8.1,5.6v10.4h-23.7v7.6
		h-8.1V12.2H124.6z M120.7,38V27.5l8.1,5.6v10.4h-19.9v4.1h-8.1V38H120.7z"/>
	<path id="XMLID_63_" class="st1" d="M192.9,17.7c-1.6-0.5-3.5-0.7-5.3-0.7c-9.8,0-18,7.6-18,18.8c0,3.8,0.7,7.8,2.2,11
		c-6-2.8-10.2-8.8-10.2-16.9c0-11.1,8.1-18.5,17.8-18.5C184.7,11.4,189.6,13.8,192.9,17.7z M187.6,66.8c-6.3,0-10.9-1.3-17.3-5.6
		l-2.7-1.8c3.5,1.2,7.6,1.9,11.6,1.9c18.1,0,32.4-12.9,32.4-31.3c0-7.8-2.5-14-6.2-19l4.2,3.2c5.1,3.7,10,10.9,10,21.7
		C219.7,53.9,205.5,66.8,187.6,66.8z"/>
	<path id="XMLID_66_" class="st1" d="M258.2,52.7v13h-11.7l-8-5.6h11.6V44.3L258.2,52.7z M265,17.6h-6.8v13c-1,0.2-2.1,0.2-3.2,0.2
		h-4.9V12.1h6.6c4.5,0,7.8,1.9,9.1,5.6C265.7,17.6,265.3,17.6,265,17.6z M281.1,11.6c5.8,4,8.1,8.5,8.1,15.4
		c0,9.8-6.4,17.1-16.2,20.2l18.8,18.6H276l-8-5.6h16.1l-19-18.7c9.6-3,15.9-10.4,15.9-20.3c0-4.9-1.2-9.1-4.1-12.5L281.1,11.6z"/>
	<path id="XMLID_70_" class="st1" d="M334.8,11.4c4.9,0,9.4,0.9,14.7,3.6l4.1-10.5l8.1,5.6l-3.8,9.8c-5.4-2.3-9.8-3-14.7-3
		c-10.3,0-18.2,7.1-18.2,18.8c0,4.6,1.2,8.4,3.3,11.4c-6.6-2.6-11.4-8.6-11.4-17.2C316.9,18.4,324.7,11.4,334.8,11.4z M320.9,58.2
		c3.7,1.9,8.9,3,14.8,3c7.1,0,14.1-1.1,20.8-4.2V29.8l8.1,5.6v27.2c-6.6,3-13.5,4.1-20.5,4.1c-8.1,0-14.1-2-18.8-5.4L320.9,58.2z
		 M342,45.8h-1l-8-5.6h9V45.8z"/>
	<path id="XMLID_74_" class="st1" d="M421.5,60.2V49.7l8.1,5.6v10.4h-36.2l-8-5.6H421.5z M420.8,12.2V1.8l8.1,5.6v10.4h-23.7v7.6
		H397V12.2H420.8z M417,38V27.5l8.1,5.6v10.4h-19.9v4.1H397V38H417z"/>
	<path id="XMLID_78_" class="st1" d="M490.2,61.2c11.6,0,19.8-6.7,19.8-18.5V1.8l8.1,5.6v41.1c0,11.6-8.1,18.3-19.5,18.3
		c-4.3,0-9.3-1.8-14.5-6.4C485.9,60.9,488.2,61.2,490.2,61.2z M491.7,48.2c-0.4,0.1-0.9,0.2-1.4,0.2c-2.7,0-4.6-1.6-5.1-4.7
		L491.7,48.2z"/>
	<path id="XMLID_81_" class="st1" d="M580.1,17.7c-1.6-0.5-3.5-0.7-5.3-0.7c-9.8,0-18,7.6-18,18.8c0,3.8,0.7,7.8,2.2,11
		c-6-2.8-10.2-8.8-10.2-16.9c0-11.1,8.1-18.5,17.8-18.5C571.9,11.4,576.8,13.8,580.1,17.7z M574.7,66.8c-6.3,0-10.9-1.3-17.3-5.6
		l-2.7-1.8c3.5,1.2,7.6,1.9,11.6,1.9c18.1,0,32.4-12.9,32.4-31.3c0-7.8-2.5-14-6.2-19l4.2,3.2c5.1,3.7,10,10.9,10,21.7
		C606.9,53.9,592.7,66.8,574.7,66.8z"/>
	<path id="XMLID_84_" class="st1" d="M637.3,26.1l8.1,10.6v29.1h-11.7l-8-5.6h11.6V26.1z M636.2,3.1l5.1,3.6l18,23.5v3.5L636.2,3.1z
		 M673.8,60.2V1.8l8.1,5.6v58.4h-8.1l-8-5.6H673.8z"/>
	<path id="XMLID_88_" class="st1" d="M740.9,60.2V49.7l8.1,5.6v10.4h-36.2l-8-5.6H740.9z M740.2,12.2V1.8l8.1,5.6v10.4h-23.7v7.6
		h-8.1V12.2H740.2z M736.3,38V27.5l8.1,5.6v10.4h-19.9v4.1h-8.1V38H736.3z"/>
	<path id="XMLID_92_" class="st1" d="M804.6,42.8c0-3.3-0.6-5.9-1.7-8.1l2,1.4c4.8,3.5,7.8,7.5,7.8,13.1c0,10.3-7.7,17.5-20,17.5
		c-3.8,0-7.6-1.2-11.1-3.6l-4.6-3.2c2.2,0.9,4.9,1.2,7.4,1.2C796.8,61.2,804.6,54.1,804.6,42.8z M786.7,21.3c0,0.5,0,1,0.2,1.5
		c-6.4-2.8-8.3-4.6-8.3-7.3c0-2.2,1.5-4,4.6-4c3.6,0,5.2,2.4,5,6C787.3,18.2,786.7,19.7,786.7,21.3z M784.1,48.4
		c-1.2,0-2.2-0.3-3.1-0.9c-1-0.6-1.7-1.5-2.2-2.7L784.1,48.4z M788.5,39.9c-0.3-0.5-1.7-1.5-2.6-2c-0.7-0.4-2.2-1.2-4.4-2.2
		L788.5,39.9z M791.4,17.4h11.5c-0.1-4.1-0.9-7.7-3.2-11l4.6,3.1c4.3,2.9,6.6,7,6.6,13.4h-11.9L791.4,17.4z"/>
</g>
<g id="XMLID_14_">
	<path id="XMLID_15_" class="st2" d="M52.9,13.4c-4.6-2.2-8.9-3.1-14-3.1C28,10.3,19.7,17.8,19.7,30c0,12.5,9.4,19.8,20.5,19.8
		c2.5,0,5.2-0.2,7.1-0.9v-9.8H35.5V29.1h23.7v27.3c-6,2.7-12.5,3.7-19.5,3.7c-18.7,0-32.2-12.2-32.2-30c0-17.2,12.9-30,31.5-30
		c6.6,0,12.5,1.2,17.4,3.9L52.9,13.4z M50.9,6.3c-3.4-1.2-7.6-1.9-12-1.9C23.2,4.4,12.8,15.3,12.8,30c0,15.4,11.2,25.6,27,25.6
		c5,0,10-0.8,14.4-2.5V33.4H40.5v1.5h12v17.3c-3.7,1.4-8.3,2.1-12.3,2.1c-14.4,0-25.7-9.1-25.7-24.2C14.4,15.3,25,5.9,38.7,5.9
		c4.2,0,8.3,0.5,11.7,1.8L50.9,6.3z"/>
	<path id="XMLID_18_" class="st2" d="M87.9,1h35.7v10.1H99.8v15.6h19.9v10.1H99.8V49h24.5v10.1H87.9V1z M93,54.8h26.7v-1.5H94.7
		V32.5h20.5V31H94.7V6.8H119V5.3H93V54.8z"/>
	<path id="XMLID_21_" class="st2" d="M179.5,0c17.4,0,31.1,12.5,31.1,30c0,17.6-13.7,30-31.1,30s-31.1-12.5-31.1-30
		C148.4,12.5,162.1,0,179.5,0z M179.5,55.7c14.6,0,25.9-10.7,25.9-25.6c0-14.9-11.3-25.6-25.9-25.6S153.6,15.1,153.6,30
		C153.6,45,164.9,55.7,179.5,55.7z M179.5,5.9c13.5,0,24.2,9.9,24.2,24.2c0,14.3-10.7,24.2-24.2,24.2s-24.2-9.9-24.2-24.2
		C155.3,15.8,166,5.9,179.5,5.9z M179.5,49.8c10.5,0,19-8.1,19-19.8c0-11.7-8.5-19.8-19-19.8s-19,8.1-19,19.8
		C160.5,41.8,169,49.8,179.5,49.8z"/>
	<path id="XMLID_26_" class="st2" d="M262.9,41l18.4,18.1h-15.2l-17-17.6v17.6h-12V1h20c14.3,0,22.9,9,22.9,20.3
		C280.1,31.5,273.4,38.7,262.9,41z M268.4,55h2.2l-17.4-17.5h3.4c11.7,0,18.2-7.1,18.2-16.1s-6.5-16.1-18.2-16.1h-14.4V55h1.7V37.4
		h7.1L268.4,55z M244,6.7h12.9c9.8,0,16.3,5.9,16.3,14.6s-6.5,14.6-16.3,14.6H244V6.7z M249.1,32.2h6.1c8.2,0,12.7-3.6,12.7-10.6
		c0-7-4.5-10.6-11-10.6h-7.8V32.2z"/>
	<path id="XMLID_31_" class="st2" d="M349.1,13.4c-4.6-2.2-8.9-3.1-14-3.1c-10.9,0-19.2,7.6-19.2,19.8c0,12.5,9.4,19.8,20.5,19.8
		c2.5,0,5.2-0.2,7.1-0.9v-9.8h-11.8V29.1h23.7v27.3c-6,2.7-12.5,3.7-19.5,3.7c-18.7,0-32.2-12.2-32.2-30c0-17.2,12.9-30,31.5-30
		c6.6,0,12.5,1.2,17.4,3.9L349.1,13.4z M347.2,6.3c-3.4-1.2-7.6-1.9-12-1.9C319.4,4.4,309,15.3,309,30c0,15.4,11.2,25.6,27,25.6
		c5,0,10-0.8,14.4-2.5V33.4h-13.6v1.5h12v17.3c-3.7,1.4-8.3,2.1-12.3,2.1c-14.4,0-25.7-9.1-25.7-24.2c0-14.8,10.5-24.2,24.2-24.2
		c4.2,0,8.3,0.5,11.7,1.8L347.2,6.3z"/>
	<path id="XMLID_34_" class="st2" d="M384.1,1h35.7v10.1h-23.7v15.6H416v10.1h-19.9V49h24.5v10.1h-36.4V1z M389.2,54.8H416v-1.5
		h-25.1V32.5h20.5V31h-20.5V6.8h24.3V5.3h-26V54.8z"/>
	<path id="XMLID_37_" class="st2" d="M472,42.8h12c0,4.6,2.6,7,6.6,7s6.6-2.2,6.6-7.4V1h12v41.8c0,11-7.6,17.3-18.5,17.3
		S472,54,472,42.8z M503.9,42.8V5.1h-1.7v37.3c0,8.1-4.9,11.8-11.7,11.8c-5.5,0-9.6-2.3-11.1-7.2h-1.7c1.6,5.7,6.4,8.7,12.9,8.7
		C498.5,55.7,503.9,51.1,503.9,42.8z"/>
	<path id="XMLID_40_" class="st2" d="M566.7,0c17.4,0,31.1,12.5,31.1,30c0,17.6-13.7,30-31.1,30s-31.1-12.5-31.1-30
		C535.6,12.5,549.3,0,566.7,0z M566.7,55.7c14.6,0,25.9-10.7,25.9-25.6c0-14.9-11.3-25.6-25.9-25.6S540.8,15.1,540.8,30
		C540.8,45,552.1,55.7,566.7,55.7z M566.7,5.9c13.5,0,24.2,9.9,24.2,24.2c0,14.3-10.7,24.2-24.2,24.2s-24.2-9.9-24.2-24.2
		C542.5,15.8,553.2,5.9,566.7,5.9z M566.7,49.8c10.5,0,19-8.1,19-19.8c0-11.7-8.5-19.8-19-19.8s-19,8.1-19,19.8
		C547.7,41.8,556.2,49.8,566.7,49.8z"/>
	<path id="XMLID_45_" class="st2" d="M664,59.1l-27.6-36.5v36.5h-12V1h8.8l27.6,36.4V1h12v58.1H664z M666.4,55h1.2V5.1H666v46.7
		L630.8,5.1h-1.2V55h1.7V8.3L666.4,55z"/>
	<path id="XMLID_48_" class="st2" d="M703.5,1h35.7v10.1h-23.7v15.6h19.9v10.1h-19.9V49h24.5v10.1h-36.4V1z M708.6,54.8h26.7v-1.5
		h-25.1V32.5h20.5V31h-20.5V6.8h24.3V5.3h-26V54.8z"/>
	<path id="XMLID_51_" class="st2" d="M765.2,43.7h12.1c0.4,4.2,3.3,6.1,7.4,6.1s6.7-2.4,6.7-6.1c0-3.7-2.3-5.9-10.2-9.1
		c-11.6-4.8-15.7-10.3-15.7-18.8c0-9.5,7-15.8,18.2-15.8c10.4,0,18.2,6.1,18.2,16.3h-12.1c0-3.6-2.3-6-6.2-6c-4,0-5.9,2.4-5.9,5.3
		c0,3.5,2.4,5.5,10.5,9c11.6,5,15.4,10.2,15.4,18.3c0,10.3-7.3,17.1-19,17.1S765.9,53,765.2,43.7z M798.3,43.6
		c0-6.7-3.3-10.1-12.8-14.4c-10.2-4.7-13.1-8.1-13.1-13.5c0-6,4.2-9.7,11.1-9.7c5.5,0,9.1,2.2,10.7,6.2h1.7
		c-1.7-5.2-6.5-7.7-12.3-7.7c-7.9,0-12.9,4.2-12.9,11.3c0,5.8,3.2,10,13.1,14.4c10.1,4.5,12.8,7.8,12.8,13.5c0,6.6-4.9,10.5-12,10.5
		c-5.6,0-9.5-1.9-11.5-6.4h-1.7c2.1,5.1,6.6,7.9,13.1,7.9C793.2,55.7,798.3,50.9,798.3,43.6z"/>
</g>
</svg>
