<?xml version="1.0" encoding="utf-8"?>
<!-- Generator: Adobe Illustrator 19.0.0, SVG Export Plug-In . SVG Version: 6.00 Build 0)  -->
<svg version="1.1" id="Layer_1" xmlns="http://www.w3.org/2000/svg" xmlns:xlink="http://www.w3.org/1999/xlink" x="0px" y="0px"
	 viewBox="0 0 497.9 29" style="enable-background:new 0 0 497.9 29;" xml:space="preserve">
<style type="text/css">
	.st0{fill:#FFDB00;}
</style>
<g id="XMLID_16_">
	<g id="XMLID_4441_">
		<path id="XMLID_4963_" class="st0" d="M6.3,11.3L0,15.7c0-0.3,0-0.6,0-0.9L6.8,10C6.6,10.5,6.4,10.9,6.3,11.3z M8,8.2l-8,5.6
			c0-0.3,0-0.6,0.1-0.9L17.9,0.2c0.4,0.1,0.7,0.1,1,0.2l-7.2,5.1C10.3,6.1,9,7,8,8.2z M5.9,13.6l-5.6,3.9c0-0.2-0.1-0.5-0.1-0.8
			L6,12.5C5.9,12.9,5.9,13.2,5.9,13.6z M16.7,0.1L0.3,11.6c0.1-0.4,0.1-0.7,0.3-1.1L15.5,0C15.9,0,16.3,0,16.7,0.1z M5.9,15.5
			l-5.2,3.6c-0.1-0.2-0.2-0.5-0.2-0.8l5.4-3.7C5.8,14.9,5.9,15.2,5.9,15.5z M14,0L0.9,9.2c0.2-0.5,0.4-0.9,0.6-1.4l11-7.7
			C13,0.1,13.6,0,14,0z M6.2,17.2l-4.9,3.4c-0.1-0.2-0.2-0.4-0.3-0.7l5-3.5C6.1,16.7,6.1,17,6.2,17.2z M6.7,18.8l-4.7,3.3
			c-0.1-0.2-0.3-0.4-0.4-0.7L6.4,18C6.5,18.3,6.6,18.6,6.7,18.8z M3,23.4c-0.1-0.2-0.3-0.4-0.4-0.6l4.6-3.2c0.1,0.2,0.3,0.5,0.4,0.7
			L3,23.4z M10.4,0.6L2.6,6.1C3.2,5.2,4.1,4.2,5,3.4l1.7-1.2C7.9,1.5,9.1,1,10.4,0.6z M8.6,21.4L4,24.6c-0.2-0.2-0.4-0.4-0.5-0.6
			L8,20.8C8.2,21,8.4,21.2,8.6,21.4z M9.9,22.5l-4.6,3.2c-0.2-0.2-0.4-0.4-0.6-0.5L9.2,22C9.4,22.1,9.6,22.3,9.9,22.5z M11.4,23.3
			l-4.8,3.4c-0.2-0.1-0.5-0.3-0.7-0.5l4.7-3.3C10.9,23.1,11.2,23.2,11.4,23.3z M13.4,23.9l-5.2,3.6c-0.3-0.1-0.6-0.3-0.8-0.4l5-3.5
			C12.7,23.7,13.1,23.8,13.4,23.9z M14.7,24c0.5,0,0.9,0,1.4-0.1L10,28.2c-0.3-0.1-0.6-0.2-0.9-0.3L14.7,24z M29.9,16.3L12.1,28.7
			c-0.4-0.1-0.7-0.1-1-0.2l7.3-5.1c1.4-0.5,2.5-1.3,3.5-2.4l8.2-5.7C30,15.6,29.9,16,29.9,16.3z M29.5,18.5L14.5,29
			c-0.4,0-0.8,0-1.2-0.1l16.4-11.5C29.7,17.8,29.6,18.2,29.5,18.5z M20.9,1.1L15.3,5c-0.5,0-1,0-1.4,0.1L20,0.8
			C20.3,0.9,20.6,1,20.9,1.1z M28.4,21.2l-10.8,7.5c-0.5,0.1-1,0.1-1.5,0.2l13-9.1C28.8,20.3,28.7,20.8,28.4,21.2z M22.6,1.8l-5,3.5
			c-0.3-0.1-0.6-0.2-1-0.2l5.2-3.6C22.1,1.6,22.3,1.7,22.6,1.8z M24.1,2.8L19.4,6c-0.2-0.1-0.5-0.3-0.8-0.4l4.8-3.4
			C23.6,2.4,23.9,2.6,24.1,2.8z M19.7,28.3l7.6-5.3C25.5,25.5,22.9,27.3,19.7,28.3z M25.4,3.8L20.8,7c-0.2-0.2-0.4-0.3-0.7-0.5
			l4.6-3.2C25,3.5,25.2,3.6,25.4,3.8z M26.5,5L22,8.1c-0.2-0.2-0.3-0.4-0.5-0.6L26,4.4C26.2,4.6,26.4,4.8,26.5,5z M27.5,6.2
			l-4.6,3.2c-0.1-0.2-0.2-0.4-0.4-0.6L27,5.6C27.2,5.8,27.4,6,27.5,6.2z M30,14.2l-6.9,4.8c0.2-0.4,0.4-0.9,0.5-1.4l6.3-4.4
			C30,13.7,30,14,30,14.2z M28.3,7.6L23.6,11c-0.1-0.2-0.2-0.5-0.3-0.8l4.7-3.3C28.1,7.1,28.2,7.4,28.3,7.6z M29,9l-5,3.6
			c0-0.3-0.1-0.6-0.2-0.8l4.9-3.5C28.8,8.5,28.9,8.8,29,9z M29.9,12.4L24,16.6c0.1-0.4,0.1-0.7,0.2-1.1l5.6-3.9
			C29.8,11.8,29.8,12.2,29.9,12.4z M29.5,10.7l-5.4,3.8c0-0.3,0-0.7,0-0.9l5.2-3.7C29.4,10.2,29.5,10.4,29.5,10.7z"/>
		<path id="XMLID_4935_" class="st0" d="M46.3,0.5l-9.5,6.6v-1l8.1-5.7H46.3z M36.8,4.2l5.3-3.7h1.4l-6.7,4.7V4.2z M36.8,2.2
			l2.5-1.8h1.4l-3.9,2.7V2.2z M36.8,0.5h1.1l-1.1,0.8V0.5z M48.7,0.7L36.8,9.1v-1l10.8-7.6C47.9,0.6,48.3,0.6,48.7,0.7z M36.8,10
			l5.8-4v1l-5.8,4V10z M36.8,12l5.8-4v1l-5.8,4V12z M57.2,10.5L36.8,24.7v-1l10.8-7.6c1.4-0.4,2.3-1,2.9-2l6.6-4.7
			C57.2,9.8,57.2,10.2,57.2,10.5z M36.8,14l5.8-4v1l-5.8,4V14z M36.8,15.9l5.8-4v1l-5.8,4V15.9z M36.8,17.9l5.8-4v1l-5.8,4V17.9z
			 M36.8,19.8l5.8-4v0.6h0.5l-6.3,4.4V19.8z M45.8,16.4l-9,6.4v-1l7.6-5.4H45.8z M36.8,25.7l5.8-4v1l-5.8,4V25.7z M36.8,28.5v-0.8
			l5.8-4v1L37,28.5H36.8z M38.4,28.5l4.2-2.9v1l-2.8,2H38.4z M41.2,28.5l1.4-1v1H41.2z M57.1,12.5l-12.6,8.7h-1.4l14-9.7
			C57.2,11.9,57.2,12.2,57.1,12.5z M50.7,1.3l-5.7,4h-1.4L49.7,1C50,1,50.4,1.2,50.7,1.3z M56.9,13.6c-0.1,0.4-0.2,0.8-0.4,1.2
			l-9.1,6.3c-0.4,0-1,0.1-1.4,0.1L56.9,13.6z M52.4,2.1l-4.9,3.4c-0.4-0.1-0.7-0.1-1.1-0.2l5.2-3.7C51.8,1.8,52.1,1.9,52.4,2.1z
			 M53.7,3l-4.5,3.2c-0.2-0.2-0.5-0.3-0.8-0.4l4.7-3.3C53.3,2.7,53.6,2.9,53.7,3z M49.3,20.8l6.5-4.5C54.5,18.4,52.5,20.1,49.3,20.8
			z M55,4.2l-4.6,3.1c-0.1-0.2-0.4-0.5-0.6-0.7l4.6-3.1C54.6,3.8,54.8,4,55,4.2z M55.9,5.5l-4.7,3.3C51,8.6,50.9,8.3,50.8,8l4.6-3.2
			C55.6,5.1,55.7,5.3,55.9,5.5z M57,8.6l-5.8,4.1c0.1-0.4,0.2-0.8,0.2-1l5.4-3.9C56.9,8,57,8.3,57,8.6z M56.6,7l-5.2,3.7
			c0-0.2,0-0.7-0.1-1.1l4.9-3.4C56.4,6.5,56.5,6.8,56.6,7z"/>
		<path id="XMLID_4905_" class="st0" d="M69.4,5.5l-5.8,4v-1l11.5-8.1h1.4l-6.9,4.9h-0.2V5.5z M63.6,6.6l8.7-6.1h1.4l-10,7.1V6.6z
			 M63.6,4.6l5.9-4.2h1.3l-7.2,5.2V4.6z M63.6,2.7l3.1-2.2h1.4l-4.5,3.2V2.7z M63.6,0.8L64,0.5h1.3l-1.7,1.2V0.8z M63.6,10.5
			l5.8-4.1v1l-5.8,4V10.5z M63.6,12.5l5.8-4.1v1l-5.8,4V12.5z M63.6,14.4l5.8-4v1l-5.8,4.1V14.4z M63.6,16.4l5.8-4v0.6H70l-6.4,4.5
			V16.4z M63.6,20.3l10.5-7.4h1.4l-12,8.4V20.3z M63.6,18.3l7.8-5.4h1.4l-9.2,6.4V18.3z M63.6,22.2l5.8-4v1l-5.8,4V22.2z M63.6,24.2
			l5.8-4v1l-5.8,4V24.2z M63.6,26.1l5.8-4v1l-5.8,4V26.1z M63.6,28.1l6.4-4.5h1.4l-7,4.9h-0.8V28.1z M65.8,28.5l7-4.9h1.4l-6.9,4.9
			H65.8z M68.6,28.5l7-4.9H77l-7,4.9H68.6z M70,17.8l7-4.9h1.4l-7,4.9H70z M71,5.4l7-4.9h1.4l-7,4.9H71z M71.4,28.5l7-4.9h1.4
			l-6.9,4.9H71.4z M72.8,17.8l6.2-4.4v1l-4.8,3.4H72.8z M80.8,1.4l-5.7,4h-1.4l7-4.9h0.1V1.4z M81.2,24.6l-5.6,3.9h-1.4l7-4.9V24.6z
			 M75.6,17.8l3.4-2.4v1l-2,1.4H75.6z M76.6,5.4l4.3-3v1l-2.9,2H76.6z M77,28.5l4.2-2.9v1l-2.8,2H77z M78.4,17.8l0.6-0.4v0.4H78.4z
			 M79.4,5.4l1.5-1v1H79.4z M79.8,28.5l1.4-1v1H79.8z"/>
		<path id="XMLID_4863_" class="st0" d="M93,0.5l0.2,0.2l-4.4,3.1v-1l3.4-2.4H93z M88.8,0.9l0.6-0.4h1.4l-2,1.4V0.9z M88.8,4.8
			l4.9-3.4L94.2,2l-5.4,3.8V4.8z M88.8,6.8l5.9-4.1l0.5,0.6l-6.4,4.4V6.8z M88.8,8.7l6.8-4.8l0.5,0.6l-7.3,5.2V8.7z M88.8,10.6
			l7.8-5.5l0.5,0.7l-8.3,5.8V10.6z M88.8,12.6l8.8-6.2L98,7.1l-9.2,6.5V12.6z M94.6,11.5l-5.8,4v-1l9.8-6.8L99,8.4l-4.2,2.9
			l-0.3-0.4V11.5z M88.8,16.5l5.8-4v1l-5.8,4V16.5z M88.8,18.5l5.8-4v1l-5.8,4V18.5z M88.8,20.4l5.8-4v1l-5.8,4V20.4z M88.8,22.4
			l5.8-4v1l-5.8,4V22.4z M88.8,24.3l5.8-4v1l-5.8,4V24.3z M88.8,26.3l5.8-4v1l-5.8,4V26.3z M88.8,28.2l5.8-4v1l-4.7,3.3h-1V28.2z
			 M91.2,28.5l3.3-2.3v1l-1.9,1.4H91.2z M94,28.5l0.6-0.4v0.4H94z M95.4,11.9L99.5,9l0.5,0.6l-4.2,2.9L95.4,11.9z M96.3,13.2
			l4.2-2.9l0.5,0.6l-4.2,2.9L96.3,13.2z M97.3,14.5l4.2-2.9l0.5,0.6l-4.2,2.9L97.3,14.5z M98.2,15.8l4.2-2.9l0.5,0.6l-4.2,2.9
			L98.2,15.8z M99.2,17l4.2-2.9l0.5,0.6l-4.2,2.9L99.2,17z M100.2,18.3l4.2-2.9l0.5,0.6l-4.2,2.9L100.2,18.3z M101.2,19.6l4.2-2.9
			l0.5,0.6l-4.2,2.9L101.2,19.6z M106.4,18v-0.2l5.8-4v1l-9.5,6.7l-0.5-0.7l4.2-2.9L106.4,18z M103.1,22.1l9-6.3v1l-8.6,6
			L103.1,22.1z M104,23.4l8.1-5.6v1l-7.6,5.3L104,23.4z M105,24.7l7.1-5v1l-6.6,4.6L105,24.7z M106,26l6.2-4.3v1l-5.7,4L106,26z
			 M112.1,1.2l-5.8,4v-1l5.3-3.7h0.4V1.2z M106.4,2.3l2.6-1.8h1.4l-3.9,2.8V2.3z M106.4,0.5h1.1l-1.1,0.8V0.5z M106.4,6.2l5.8-4v1
			l-5.8,4V6.2z M106.4,8.1l5.8-4v1l-5.8,4V8.1z M106.4,10.1l5.8-4v1l-5.8,4V10.1z M106.4,12l5.8-4v1l-5.8,4V12z M106.4,14l5.8-4v1
			l-5.8,4V14z M106.4,15.9l5.8-4v1l-5.8,4V15.9z M107,27.3l5.2-3.7v1l-4.7,3.3L107,27.3z M108,28.5l4.2-2.9v1l-2.8,1.9H108z
			 M110.8,28.5l1.4-1v1H110.8z"/>
		<path id="XMLID_4845_" class="st0" d="M126.9,1.1l-5.8,4v-1l5.3-3.7h0.4V1.1z M121.1,2.2l2.5-1.8h1.4l-3.9,2.8V2.2z M122.2,0.5
			l-1.1,0.8V0.5H122.2z M121.1,6.2l5.8-4v0.9l-5.8,4V6.2z M121.1,8.1l5.8-4v1l-5.8,4V8.1z M121.1,10l5.8-4v1l-5.8,4V10z M121.1,12
			l5.8-4v1l-5.8,4V12z M121.1,14l5.8-4v1l-5.8,4V14z M121.1,15.9l5.8-4v1l-5.8,4V15.9z M121.1,17.9l5.8-4v1l-5.8,4V17.9z
			 M121.1,19.8l5.8-4v1l-5.8,4V19.8z M121.1,21.8l5.8-4v1l-5.8,4V21.8z M121.1,23.7l5.8-4v1l-5.8,4V23.7z M121.1,25.7l5.8-4v1
			l-5.8,4V25.7z M121.1,28.5v-0.8l5.8-4v1l-5.6,3.9H121.1z M122.7,28.5l4.2-2.9v1l-2.8,2H122.7z M125.5,28.5l1.4-1v1H125.5z"/>
		<path id="XMLID_4803_" class="st0" d="M140.1,0.5l0.2,0.2l-4.4,3.1v-1l3.4-2.4H140.1z M135.9,0.9l0.6-0.4h1.4l-2,1.4V0.9z
			 M135.9,4.8l4.9-3.4l0.5,0.6l-5.4,3.8V4.8z M135.9,6.8l5.9-4.1l0.5,0.6l-6.4,4.4V6.8z M135.9,8.7l6.8-4.8l0.5,0.6l-7.3,5.2V8.7z
			 M135.9,10.6l7.8-5.5l0.5,0.7l-8.3,5.8V10.6z M135.9,12.6l8.8-6.2l0.5,0.6l-9.2,6.5V12.6z M141.6,11.5l-5.8,4v-1l9.8-6.8l0.4,0.6
			l-4.2,2.9l-0.3-0.4V11.5z M135.9,16.5l5.8-4v1l-5.8,4V16.5z M135.9,18.5l5.8-4v1l-5.8,4V18.5z M135.9,20.4l5.8-4v1l-5.8,4V20.4z
			 M135.9,22.4l5.8-4v1l-5.8,4V22.4z M135.9,24.3l5.8-4v1l-5.8,4V24.3z M135.9,26.3l5.8-4v1l-5.8,4V26.3z M135.9,28.2l5.8-4v1
			l-4.7,3.3h-1V28.2z M138.3,28.5l3.3-2.3v1l-1.9,1.4H138.3z M141.1,28.5l0.6-0.4v0.4H141.1z M142.4,11.9l4.2-2.9l0.5,0.6l-4.2,2.9
			L142.4,11.9z M143.4,13.2l4.2-2.9l0.5,0.6l-4.2,2.9L143.4,13.2z M144.4,14.5l4.2-2.9l0.5,0.6l-4.2,2.9L144.4,14.5z M145.3,15.8
			l4.2-2.9l0.5,0.6l-4.2,2.9L145.3,15.8z M146.3,17l4.2-2.9l0.5,0.6l-4.2,2.9L146.3,17z M147.3,18.3l4.2-2.9l0.5,0.6l-4.2,2.9
			L147.3,18.3z M148.2,19.6l4.2-2.9l0.5,0.6l-4.2,2.9L148.2,19.6z M153.4,18v-0.2l5.8-4v1l-9.5,6.7l-0.5-0.7l4.2-2.9L153.4,18z
			 M150.2,22.1l9-6.3v1l-8.6,6L150.2,22.1z M151.1,23.4l8.1-5.6v1l-7.6,5.3L151.1,23.4z M152.1,24.7l7.1-5v1l-6.6,4.6L152.1,24.7z
			 M153,26l6.2-4.3v1l-5.7,4L153,26z M159.2,1.2l-5.8,4v-1l5.3-3.7h0.4V1.2z M153.4,2.3l2.6-1.8h1.4l-3.9,2.8V2.3z M153.4,0.5h1.1
			l-1.1,0.8V0.5z M153.4,6.2l5.8-4v1l-5.8,4V6.2z M153.4,8.1l5.8-4v1l-5.8,4V8.1z M153.4,10.1l5.8-4v1l-5.8,4V10.1z M153.4,12l5.8-4
			v1l-5.8,4V12z M153.4,14l5.8-4v1l-5.8,4V14z M153.4,15.9l5.8-4v1l-5.8,4V15.9z M154,27.3l5.2-3.7v1l-4.7,3.3L154,27.3z M155,28.5
			l4.2-2.9v1l-2.8,1.9H155z M157.8,28.5l1.4-1v1H157.8z"/>
		<path id="XMLID_4771_" class="st0" d="M166,14.4l7.1-4.9c-0.3,0.5-0.5,0.9-0.6,1.4l-6.4,4.5C166,15,166,14.7,166,14.4z M184.6,0.3
			l-8.3,5.9c-0.5,0.3-1,0.7-1.4,1l-8.9,6.2c0-0.4,0.1-0.7,0.1-1l17.4-12.2C183.8,0.1,184.2,0.2,184.6,0.3z M166.1,16.3l6-4.3
			c-0.1,0.3-0.1,0.7-0.2,1.1l-5.7,4.1C166.2,16.9,166.1,16.6,166.1,16.3z M180.9,0c0.5,0,0.9,0,1.4,0l-15.9,11.1
			c0.1-0.4,0.2-0.8,0.3-1.1L180.9,0z M166.4,18l5.4-3.9c0,0.3,0,0.7,0,1l-5.3,3.6C166.5,18.5,166.5,18.3,166.4,18z M166.9,19.6
			l5.1-3.6c0,0.3,0.1,0.6,0.2,0.9l-4.9,3.5C167.1,20.1,166.9,19.8,166.9,19.6z M179.3,0.1l-12.2,8.6c0.2-0.5,0.5-1.1,0.7-1.5
			l9.7-6.9C178.1,0.2,178.7,0.2,179.3,0.1z M167.5,21.1l4.8-3.4c0.1,0.2,0.2,0.6,0.3,0.8l-4.8,3.2C167.8,21.6,167.6,21.3,167.5,21.1
			z M173.4,19.9l-4.7,3.2c-0.2-0.2-0.3-0.4-0.5-0.7l4.7-3.2C173.1,19.4,173.3,19.7,173.4,19.9z M175.2,1l-6.1,4.3
			C170.7,3.4,172.8,1.9,175.2,1z M169.3,23.8l4.6-3.3c0.2,0.2,0.4,0.5,0.6,0.6l-4.7,3.1C169.5,24.1,169.4,23.9,169.3,23.8z
			 M170.4,24.9l4.6-3.2c0.1,0.1,0.5,0.4,0.7,0.5l-4.7,3.3C170.8,25.3,170.6,25.1,170.4,24.9z M171.6,26l4.7-3.3
			c0.3,0.2,0.6,0.3,0.8,0.4l-4.8,3.4C172.1,26.3,171.8,26.1,171.6,26z M173.1,26.9l5-3.5c0.3,0.1,0.6,0.2,1,0.3l-5.1,3.6
			C173.7,27.2,173.3,27,173.1,26.9z M181.4,24l-5.7,4c-0.3-0.1-0.7-0.2-0.9-0.3l5.4-3.8C180.6,24,181,24,181.4,24z M176.7,28.3
			l6.2-4.3c0.6,0,1.3-0.1,1.8-0.3l-7,4.8C177.4,28.5,177,28.4,176.7,28.3z M178.8,28.8l12.1-8.5v1L180,28.9
			C179.7,28.9,179.2,28.8,178.8,28.8z M186.8,0.7l-6,4.2c-0.6,0-1.2,0.1-1.6,0.2l6.5-4.6C186.1,0.5,186.5,0.7,186.8,0.7z
			 M179.5,18.9v-0.3L186,14h1.4l-7,4.9H179.5z M179.5,16.6l3.7-2.6h1.4l-5.1,3.6V16.6z M179.5,14.7l1-0.7h1.4l-2.3,1.7V14.7z
			 M182.7,28.9c-0.4,0-0.9,0-1.3,0l9.5-6.7v1L182.7,28.9z M181.8,18.9l7-4.9h1.4l-7,4.9H181.8z M188.7,1.4l-5.2,3.7
			C183,5,182.5,5,182.1,5l5.6-3.9C188.1,1.2,188.4,1.3,188.7,1.4z M184.3,28.8l6.6-4.6v1l-4.9,3.4C185.5,28.7,184.8,28.8,184.3,28.8
			z M189.2,3l-3.6,2.5c-0.3-0.1-0.8-0.2-1-0.3l4.9-3.5c0.1,0,0.1,0.1,0.2,0.1L189.2,3z M184.6,18.9l6.3-4.4v1l-5.8,4v-0.6H184.6z
			 M185.2,20.4l5.8-4v1l-5.8,4V20.4z M185.2,22.4l5.8-4v1l-5.8,4V22.4z M186.5,5.9l2.2-1.5l-0.5,1.3l-0.8,0.6
			C187.1,6.1,186.8,6,186.5,5.9z M188.1,28.2l2.8-2v1C190,27.6,189,27.9,188.1,28.2z"/>
		<path id="XMLID_4753_" class="st0" d="M212.7,1.1l-5.8,4v-1l5.3-3.7h0.4V1.1z M206.9,2.2l2.5-1.8h1.4l-3.9,2.8V2.2z M208,0.5
			l-1.1,0.8V0.5H208z M206.9,6.2l5.8-4v0.9l-5.8,4V6.2z M206.9,8.1l5.8-4v1l-5.8,4V8.1z M206.9,10l5.8-4v1l-5.8,4V10z M206.9,12
			l5.8-4v1l-5.8,4V12z M206.9,14l5.8-4v1l-5.8,4V14z M206.9,15.9l5.8-4v1l-5.8,4V15.9z M206.9,17.9l5.8-4v1l-5.8,4V17.9z
			 M206.9,19.8l5.8-4v1l-5.8,4V19.8z M206.9,21.8l5.8-4v1l-5.8,4V21.8z M206.9,23.7l5.8-4v1l-5.8,4V23.7z M206.9,25.7l5.8-4v1
			l-5.8,4V25.7z M206.9,28.5v-0.8l5.8-4v1l-5.6,3.9H206.9z M208.5,28.5l4.2-2.9v1l-2.8,2H208.5z M211.3,28.5l1.4-1v1H211.3z"/>
		<path id="XMLID_4711_" class="st0" d="M225.9,0.5l0.2,0.2l-4.4,3.1v-1l3.4-2.4H225.9z M221.7,0.9l0.6-0.4h1.4l-2,1.4V0.9z
			 M221.7,4.8l4.9-3.4l0.5,0.6l-5.4,3.8V4.8z M221.7,6.8l5.9-4.1l0.5,0.6l-6.4,4.4V6.8z M221.7,8.7l6.8-4.8l0.5,0.6l-7.3,5.2V8.7z
			 M221.7,10.6l7.8-5.5l0.5,0.7l-8.3,5.8V10.6z M221.7,12.6l8.8-6.2l0.5,0.6l-9.2,6.5V12.6z M227.4,11.5l-5.8,4v-1l9.8-6.8l0.4,0.6
			l-4.2,2.9l-0.3-0.4V11.5z M221.7,16.5l5.8-4v1l-5.8,4V16.5z M221.7,18.5l5.8-4v1l-5.8,4V18.5z M221.7,20.4l5.8-4v1l-5.8,4V20.4z
			 M221.7,22.4l5.8-4v1l-5.8,4V22.4z M221.7,24.3l5.8-4v1l-5.8,4V24.3z M221.7,26.3l5.8-4v1l-5.8,4V26.3z M221.7,28.2l5.8-4v1
			l-4.7,3.3h-1V28.2z M224.1,28.5l3.3-2.3v1l-1.9,1.4H224.1z M226.9,28.5l0.6-0.4v0.4H226.9z M228.2,11.9l4.2-2.9l0.5,0.6l-4.2,2.9
			L228.2,11.9z M229.2,13.2l4.2-2.9l0.5,0.6l-4.2,2.9L229.2,13.2z M230.2,14.5l4.2-2.9l0.5,0.6l-4.2,2.9L230.2,14.5z M231.1,15.8
			l4.2-2.9l0.5,0.6l-4.2,2.9L231.1,15.8z M232.1,17l4.2-2.9l0.5,0.6l-4.2,2.9L232.1,17z M233.1,18.3l4.2-2.9l0.5,0.6l-4.2,2.9
			L233.1,18.3z M234,19.6l4.2-2.9l0.5,0.6l-4.2,2.9L234,19.6z M239.2,18v-0.2l5.8-4v1l-9.5,6.7l-0.5-0.7l4.2-2.9L239.2,18z
			 M236,22.1l9-6.3v1l-8.6,6L236,22.1z M236.9,23.4l8.1-5.6v1l-7.6,5.3L236.9,23.4z M237.9,24.7l7.1-5v1l-6.6,4.6L237.9,24.7z
			 M238.8,26l6.2-4.3v1l-5.7,4L238.8,26z M245,1.2l-5.8,4v-1l5.3-3.7h0.4V1.2z M239.2,2.3l2.6-1.8h1.4l-3.9,2.8V2.3z M239.2,0.5h1.1
			l-1.1,0.8V0.5z M239.2,6.2l5.8-4v1l-5.8,4V6.2z M239.2,8.1l5.8-4v1l-5.8,4V8.1z M239.2,10.1l5.8-4v1l-5.8,4V10.1z M239.2,12l5.8-4
			v1l-5.8,4V12z M239.2,14l5.8-4v1l-5.8,4V14z M239.2,15.9l5.8-4v1l-5.8,4V15.9z M239.8,27.3l5.2-3.7v1l-4.7,3.3L239.8,27.3z
			 M240.8,28.5l4.2-2.9v1l-2.8,1.9H240.8z M243.6,28.5l1.4-1v1H243.6z"/>
		<path id="XMLID_4669_" class="st0" d="M266,0.5l0.2,0.2l-4.4,3.1v-1l3.4-2.4H266z M261.8,0.9l0.6-0.4h1.4l-2,1.4V0.9z M261.8,4.8
			l4.9-3.4l0.5,0.6l-5.4,3.8V4.8z M261.8,6.8l5.9-4.1l0.5,0.6l-6.4,4.4V6.8z M261.8,8.7l6.8-4.8l0.5,0.6l-7.3,5.2V8.7z M261.8,10.6
			l7.8-5.5l0.5,0.7l-8.3,5.8V10.6z M261.8,12.6l8.8-6.2l0.5,0.6l-9.2,6.5V12.6z M267.6,11.5l-5.8,4v-1l9.8-6.8l0.4,0.6l-4.2,2.9
			l-0.3-0.4V11.5z M261.8,16.5l5.8-4v1l-5.8,4V16.5z M261.8,18.5l5.8-4v1l-5.8,4V18.5z M261.8,20.4l5.8-4v1l-5.8,4V20.4z
			 M261.8,22.4l5.8-4v1l-5.8,4V22.4z M261.8,24.3l5.8-4v1l-5.8,4V24.3z M261.8,26.3l5.8-4v1l-5.8,4V26.3z M261.8,28.2l5.8-4v1
			l-4.7,3.3h-1V28.2z M264.2,28.5l3.3-2.3v1l-1.9,1.4H264.2z M267,28.5l0.6-0.4v0.4H267z M268.4,11.9l4.2-2.9l0.5,0.6l-4.2,2.9
			L268.4,11.9z M269.3,13.2l4.2-2.9l0.5,0.6l-4.2,2.9L269.3,13.2z M270.3,14.5l4.2-2.9l0.5,0.6l-4.2,2.9L270.3,14.5z M271.2,15.8
			l4.2-2.9l0.5,0.6l-4.2,2.9L271.2,15.8z M272.2,17l4.2-2.9l0.5,0.6l-4.2,2.9L272.2,17z M273.2,18.3l4.2-2.9l0.5,0.6l-4.2,2.9
			L273.2,18.3z M274.2,19.6l4.2-2.9l0.5,0.6l-4.2,2.9L274.2,19.6z M279.4,18v-0.2l5.8-4v1l-9.5,6.7l-0.5-0.7l4.2-2.9L279.4,18z
			 M276.1,22.1l9-6.3v1l-8.6,6L276.1,22.1z M277,23.4l8.1-5.6v1l-7.6,5.3L277,23.4z M278,24.7l7.1-5v1l-6.6,4.6L278,24.7z M279,26
			l6.2-4.3v1l-5.7,4L279,26z M285.1,1.2l-5.8,4v-1l5.3-3.7h0.4V1.2z M279.4,2.3l2.6-1.8h1.4l-3.9,2.8V2.3z M279.4,0.5h1.1l-1.1,0.8
			V0.5z M279.4,6.2l5.8-4v1l-5.8,4V6.2z M279.4,8.1l5.8-4v1l-5.8,4V8.1z M279.4,10.1l5.8-4v1l-5.8,4V10.1z M279.4,12l5.8-4v1l-5.8,4
			V12z M279.4,14l5.8-4v1l-5.8,4V14z M279.4,15.9l5.8-4v1l-5.8,4V15.9z M280,27.3l5.2-3.7v1l-4.7,3.3L280,27.3z M281,28.5l4.2-2.9v1
			l-2.8,1.9H281z M283.8,28.5l1.4-1v1H283.8z"/>
		<path id="XMLID_4638_" class="st0" d="M298.2,11.3l-6.3,4.4c0-0.3,0-0.6,0-0.9l6.8-4.8C298.5,10.5,298.4,10.9,298.2,11.3z
			 M299.9,8.2l-8,5.6c0-0.3,0-0.6,0.1-0.9l17.8-12.6c0.4,0.1,0.7,0.1,1,0.2l-7.2,5.1C302.2,6.1,301,7,299.9,8.2z M297.8,13.6
			l-5.6,3.9c0-0.2-0.1-0.5-0.1-0.8l5.9-4.1C297.9,12.9,297.8,13.2,297.8,13.6z M308.6,0.1l-16.5,11.6c0.1-0.4,0.1-0.7,0.3-1.1
			l15-10.5C307.9,0,308.2,0,308.6,0.1z M297.8,15.5l-5.2,3.6c-0.1-0.2-0.2-0.5-0.2-0.8l5.4-3.7C297.8,14.9,297.8,15.2,297.8,15.5z
			 M305.9,0l-13.1,9.2c0.2-0.5,0.4-0.9,0.6-1.4l11-7.7C304.9,0.1,305.5,0,305.9,0z M298.1,17.2l-4.9,3.4c-0.1-0.2-0.2-0.4-0.3-0.7
			l5-3.5C298,16.7,298,17,298.1,17.2z M298.7,18.8l-4.7,3.3c-0.1-0.2-0.3-0.4-0.4-0.7l4.7-3.4C298.5,18.3,298.6,18.6,298.7,18.8z
			 M294.9,23.4c-0.1-0.2-0.3-0.4-0.4-0.6l4.6-3.2c0.1,0.2,0.3,0.5,0.4,0.7L294.9,23.4z M302.3,0.6l-7.8,5.4c0.6-0.9,1.5-1.8,2.4-2.6
			l1.7-1.2C299.8,1.5,301,1,302.3,0.6z M300.5,21.4l-4.5,3.2c-0.2-0.2-0.4-0.4-0.5-0.6l4.5-3.2C300.1,21,300.3,21.2,300.5,21.4z
			 M301.8,22.5l-4.6,3.2c-0.2-0.2-0.4-0.4-0.6-0.5l4.5-3.2C301.3,22.1,301.6,22.3,301.8,22.5z M303.4,23.3l-4.8,3.4
			c-0.2-0.1-0.5-0.3-0.7-0.5l4.7-3.3C302.8,23.1,303.1,23.2,303.4,23.3z M305.4,23.9l-5.2,3.6c-0.3-0.1-0.6-0.3-0.8-0.4l5-3.5
			C304.6,23.7,305,23.8,305.4,23.9z M306.6,24c0.5,0,0.9,0,1.4-0.1l-6.1,4.3c-0.3-0.1-0.6-0.2-0.9-0.3L306.6,24z M321.8,16.3
			L304,28.7c-0.4-0.1-0.7-0.1-1-0.2l7.3-5.1c1.4-0.5,2.5-1.3,3.5-2.4l8.2-5.7C321.9,15.6,321.9,16,321.8,16.3z M321.4,18.5L306.4,29
			c-0.4,0-0.8,0-1.2-0.1l16.4-11.5C321.6,17.8,321.5,18.2,321.4,18.5z M312.8,1.1L307.2,5c-0.5,0-1,0-1.4,0.1l6.1-4.3
			C312.2,0.9,312.5,1,312.8,1.1z M320.3,21.2l-10.8,7.5c-0.5,0.1-1,0.1-1.5,0.2l13-9.1C320.8,20.3,320.6,20.8,320.3,21.2z
			 M314.5,1.8l-5,3.5c-0.3-0.1-0.6-0.2-1-0.2l5.2-3.6C314,1.6,314.3,1.7,314.5,1.8z M316,2.8L311.3,6c-0.2-0.1-0.5-0.3-0.8-0.4
			l4.8-3.4C315.5,2.4,315.8,2.6,316,2.8z M311.7,28.3l7.6-5.3C317.4,25.5,314.8,27.3,311.7,28.3z M317.3,3.8L312.8,7
			c-0.2-0.2-0.4-0.3-0.7-0.5l4.6-3.2C316.9,3.5,317.1,3.6,317.3,3.8z M318.4,5l-4.5,3.2c-0.2-0.2-0.3-0.4-0.5-0.6l4.5-3.2
			C318.1,4.6,318.3,4.8,318.4,5z M319.4,6.2l-4.6,3.2c-0.1-0.2-0.2-0.4-0.4-0.6l4.6-3.2C319.1,5.8,319.3,6,319.4,6.2z M321.9,14.2
			l-6.9,4.8c0.2-0.4,0.4-0.9,0.5-1.4l6.3-4.4C321.9,13.7,321.9,14,321.9,14.2z M320.3,7.6l-4.8,3.4c-0.1-0.2-0.2-0.5-0.3-0.8
			l4.7-3.3C320,7.1,320.2,7.4,320.3,7.6z M320.9,9l-5,3.6c0-0.3-0.1-0.6-0.2-0.8l4.9-3.5C320.7,8.5,320.8,8.8,320.9,9z M321.8,12.4
			l-5.9,4.2c0.1-0.4,0.1-0.7,0.2-1.1l5.6-3.9C321.7,11.8,321.8,12.2,321.8,12.4z M321.4,10.7l-5.4,3.8c0-0.3,0-0.7,0-0.9l5.2-3.7
			C321.3,10.2,321.4,10.4,321.4,10.7z"/>
		<path id="XMLID_4609_" class="st0" d="M326.3,0.5h0.4l-0.3,0.2L326.3,0.5z M326.7,1.4l1.2-0.9h1.4L327,2.2L326.7,1.4z M327.3,2.9
			l3.4-2.4h1.4l-4.4,3.2L327.3,2.9z M327.9,4.4l4.6-3.3l0.3,0.8l-4.7,3.3L327.9,4.4z M328.5,5.9l4.6-3.3l0.3,0.8l-4.6,3.3L328.5,5.9
			z M329.1,7.4l4.6-3.2L334,5l-4.6,3.2L329.1,7.4z M329.8,9l4.6-3.2l0.3,0.8l-4.6,3.2L329.8,9z M330.4,10.5l4.6-3.2l0.3,0.8
			l-4.6,3.2L330.4,10.5z M331,12l4.6-3.2l0.3,0.8l-4.6,3.1L331,12z M331.6,13.5l4.6-3.1l0.3,0.7l-4.5,3.1L331.6,13.5z M332.2,15
			l4.5-3.2l0.3,0.8l-4.5,3.1L332.2,15z M332.8,16.5l4.5-3.1l0.3,0.8l-4.5,3.1L332.8,16.5z M333.4,18.1l4.4-3.1l0.3,0.8l-4.4,3.1
			L333.4,18.1z M334,19.6l4.4-3.2l0.3,0.8l-4.4,3.2L334,19.6z M334.6,21.1l4.4-3l0.3,0.8l-4.4,3L334.6,21.1z M335.3,22.6l4.4-3
			l0.3,0.7l0.5-1.2l7.9-5.6l-0.5,1.3l-12.2,8.6L335.3,22.6z M335.9,24.2l11.4-8l-0.6,1.4l-10.5,7.4L335.9,24.2z M336.5,25.7l9.6-6.7
			l-0.5,1.3l-8.8,6.2L336.5,25.7z M337.1,27.2l7.9-5.5l-0.6,1.4l-7,5L337.1,27.2z M338.1,28.5l5.8-4l-0.6,1.4l-3.9,2.7H338.1z
			 M340.8,28.5l2-1.4l-0.6,1.4H340.8z M341.5,16.4l8-5.6l-0.6,1.4l-7.9,5.5L341.5,16.4z M342.5,13.7l8-5.6L350,9.4l-8,5.6
			L342.5,13.7z M343.6,11l8.1-5.7l-0.6,1.4l-8,5.6L343.6,11z M344.6,8.4l8.2-5.8l-0.6,1.4l-8.1,5.7L344.6,8.4z M353.3,1.2L345.1,7
			l0.5-1.3l7.4-5.2h0.6L353.3,1.2z M346.6,3l3.6-2.5h1.4l-5.4,3.8L346.6,3z M347.6,0.5h1.2l-1.6,1.2L347.6,0.5z"/>
		<path id="XMLID_4579_" class="st0" d="M365.8,5.5l-5.8,4v-1l11.5-8.1h1.4L366,5.4h-0.2V5.5z M360,6.6l8.7-6.1h1.4l-10,7.1V6.6z
			 M360,4.6l5.9-4.2h1.3L360,5.6V4.6z M360,2.7l3.1-2.2h1.4L360,3.7V2.7z M360,0.8l0.4-0.3h1.3L360,1.7V0.8z M360,10.5l5.8-4.1v1
			l-5.8,4V10.5z M360,12.5l5.8-4.1v1l-5.8,4V12.5z M360,14.4l5.8-4v1l-5.8,4.1V14.4z M360,16.4l5.8-4v0.6h0.6l-6.4,4.5V16.4z
			 M360,20.3l10.5-7.4h1.4l-12,8.4V20.3z M360,18.3l7.8-5.4h1.4l-9.2,6.4V18.3z M360,22.2l5.8-4v1l-5.8,4V22.2z M360,24.2l5.8-4v1
			l-5.8,4V24.2z M360,26.1l5.8-4v1l-5.8,4V26.1z M360,28.1l6.4-4.5h1.4l-7,4.9H360V28.1z M362.2,28.5l7-4.9h1.4l-6.9,4.9H362.2z
			 M365,28.5l7-4.9h1.4l-7,4.9H365z M366.4,17.8l7-4.9h1.4l-7,4.9H366.4z M367.4,5.4l7-4.9h1.4l-7,4.9H367.4z M367.8,28.5l7-4.9h1.4
			l-6.9,4.9H367.8z M369.2,17.8l6.2-4.4v1l-4.8,3.4H369.2z M377.2,1.4l-5.7,4h-1.4l7-4.9h0.1V1.4z M377.6,24.6l-5.6,3.9h-1.4l7-4.9
			V24.6z M372,17.8l3.4-2.4v1l-2,1.4H372z M372.9,5.4l4.3-3v1l-2.9,2H372.9z M373.4,28.5l4.2-2.9v1l-2.8,2H373.4z M374.7,17.8
			l0.6-0.4v0.4H374.7z M375.7,5.4l1.5-1v1H375.7z M376.1,28.5l1.4-1v1H376.1z"/>
		<path id="XMLID_4537_" class="st0" d="M384.4,28.5l0-0.3l6.2-4.3l-0.1,0.9l-5.2,3.6H384.4z M384.5,26.2l6.2-4.4l-0.1,1l-6.2,4.4
			L384.5,26.2z M384.7,24l6.1-4.3l-0.1,1l-6.2,4.3L384.7,24z M384.9,22l6.1-4.3l-0.1,1.1l-6.1,4.2L384.9,22z M385,19.9l6.1-4.3
			l-0.1,1.1L385,21L385,19.9z M385.2,17.8l6.1-4.2l-0.1,1.1l-6.1,4.3L385.2,17.8z M385.4,15.8l6-4.3l-0.1,1.1l-6,4.3L385.4,15.8z
			 M385.5,14.8l0.1-1l9.6-6.8l0.4,0.7L385.5,14.8z M385.7,11.7l8.6-6l0.4,0.7l-9.1,6.4L385.7,11.7z M385.9,9.5l7.5-5.3l0.5,0.7
			l-8,5.5L385.9,9.5z M386,7.5l6.4-4.6l0.4,0.7l-7,4.9L386,7.5z M386.2,5.4l5.4-3.8l0.5,0.7l-5.9,4.2L386.2,5.4z M391.2,1l-4.9,3.5
			l0.1-1l4.1-3h0.4L391.2,1z M386.5,1.2l1.1-0.7h1.4l-2.6,1.8L386.5,1.2z M386.7,28.5l3.7-2.7l-0.1,1.1l-2.3,1.5H386.7z M389.5,28.5
			l0.8-0.6l0,0.6H389.5z M391.9,11.1l4.1-2.9l0.4,0.7l-4.1,2.9L391.9,11.1z M392.8,12.5l4.1-2.9l0.5,0.7l-4.1,2.8L392.8,12.5z
			 M393.7,13.8l4.1-2.8l0.4,0.7l-4.1,2.8L393.7,13.8z M394.6,15.1l4.1-2.9l0.5,0.7l-4.1,2.8L394.6,15.1z M395.5,16.5l4.1-2.8
			l0.4,0.7l-4.1,2.9L395.5,16.5z M396.4,17.8l17.8-12.4l0.1,0.9l-17.4,12.2L396.4,17.8z M397.2,19.1l11-7.6l-1.3,1.9l-9.3,6.4
			L397.2,19.1z M398.2,20.5l7.6-5.3l-1.2,1.8l-5.9,4.2L398.2,20.5z M399.6,21.4l3.7-2.6l-1.2,1.9l-1.1,0.7H399.6z M401.8,12.1
			L414,3.5l0.1,1l-13.5,9.5L401.8,12.1z M404.3,8.3l9.6-6.7l0,1l-10.9,7.6L404.3,8.3z M413.8,0.7l-8.3,5.8l1.2-1.8l6-4.2h1
			L413.8,0.7z M409.2,1l0.8-0.5h1.4L408,2.9L409.2,1z M409,11.1l5.4-3.9l0.1,1l-5.4,3.7L409,11.1z M409.1,12.8l5.4-3.8l0.1,1
			l-5.4,3.8L409.1,12.8z M409.2,14.7l5.4-3.7l0.1,1l-5.5,3.7L409.2,14.7z M409.3,16.5l5.5-3.7l0.1,1l-5.5,3.7L409.3,16.5z
			 M409.5,18.5l5.5-3.8l0.1,0.8l-5.5,3.9L409.5,18.5z M409.6,20.3l5.5-3.9l0.1,1l-5.5,3.8L409.6,20.3z M409.7,22.2l5.5-3.9l0.1,0.9
			l-5.5,3.9L409.7,22.2z M409.8,24l5.6-3.9l0.1,0.9l-5.5,4L409.8,24z M410,26l5.6-4l0.1,1l-5.6,4L410,26z M410.1,27.8l5.6-4.1l0.1,1
			l-5.3,3.7h-0.4L410.1,27.8z M411.8,28.5l4-2.9l0.1,1l-2.6,2H411.8z M414.6,28.5l1.3-1l0.1,1H414.6z"/>
		<path id="XMLID_4506_" class="st0" d="M433.8,0.5c0.3,0,0.7,0,1.1,0L424,8.1v-1l9.4-6.6H433.8z M424,5.1l6.6-4.6h1.4l-8,5.6V5.1z
			 M424,3.2l3.8-2.7h1.4L424,4.2V3.2z M424,1.2l1-0.8h1.4L424,2.2V1.2z M437.1,0.8l-6.3,4.4h-1V6l-5.8,4V9l12-8.4
			C436.3,0.7,436.7,0.8,437.1,0.8z M424,11l5.8-4v1l-5.8,4V11z M443.6,8.1l-13,9.1h-0.8v0.6l-5.8,4v-1l19.5-13.6
			C443.5,7.4,443.6,7.8,443.6,8.1z M424,13l5.8-4v1l-5.8,4V13z M424,14.9l5.8-4v1l-5.8,4V14.9z M433.6,12.4c0.4,0,0.8,0,1.2-0.1
			L424,19.8v-1l9.2-6.4H433.6z M424,16.8l6.4-4.5h1.4l-7.8,5.5V16.8z M424,22.7l5.8-4v1l-5.8,4V22.7z M424,24.7l5.8-4v1l-5.8,4V24.7
			z M424,26.6l5.8-4v1l-5.8,4V26.6z M424.2,28.5l6.8-4.8h1.4l-6.8,4.8H424.2z M435.2,23.7l-6.8,4.8H427l6.8-4.8H435.2z M444.7,19.1
			l-13.6,9.4h-1.4l7.4-5.2c0.5-0.2,0.9-0.5,1.2-0.8l6.1-4.3C444.5,18.5,444.6,18.8,444.7,19.1z M443.4,10.2l-10,7H432l11.6-8
			C443.5,9.5,443.5,9.9,443.4,10.2z M439,1.5l-5.4,3.8h-1.4l6-4.1C438.4,1.2,438.7,1.4,439,1.5z M433.9,28.5h-1.4l12.3-8.5
			c0,0.3,0,0.6,0,0.9L433.9,28.5z M442.9,11.5c-0.6,1.2-1.6,2.3-2.9,2.9l0.1,0l-4.2,2.9c-0.3,0-0.8-0.1-1.2-0.1L442.9,11.5z
			 M440.5,2.3l-4.6,3.3c-0.3-0.1-0.6-0.2-1-0.3l5-3.4C440.1,2.1,440.3,2.2,440.5,2.3z M437,28.3c-0.5,0.1-1.1,0.1-1.7,0.1l9.5-6.6
			c0,0.4-0.1,0.9-0.2,1.2L437,28.3z M441.8,3.5l-4.5,3.2c-0.1-0.2-0.3-0.4-0.6-0.6l4.5-3.1C441.4,3.1,441.6,3.3,441.8,3.5z
			 M441.8,15.1l-3.9,2.8c-0.2-0.2-0.5-0.3-0.7-0.4l4-2.8C441.3,14.8,441.6,15,441.8,15.1z M443.3,6.2l-5.7,4.1
			c0.2-0.3,0.2-0.7,0.2-1.1l5.2-3.6C443.1,5.7,443.2,6,443.3,6.2z M442.7,4.8l-4.9,3.4c0-0.3-0.1-0.6-0.2-0.8l4.6-3.3
			C442.4,4.3,442.6,4.5,442.7,4.8z M443.1,16.2l-4.3,3c-0.1-0.2-0.2-0.5-0.4-0.7l4.1-2.9C442.7,15.8,443,16,443.1,16.2z M438.6,28.1
			l5.6-3.9C443.3,26.2,441.4,27.5,438.6,28.1z M444,17.5l-5.2,3.6c0-0.3,0.1-0.7,0-1.1l4.7-3.2C443.8,17,443.9,17.3,444,17.5z"/>
		<path id="XMLID_4476_" class="st0" d="M457.2,5.5l-5.8,4v-1L463,0.5h1.4l-6.9,4.9h-0.2V5.5z M451.5,6.6l8.7-6.1h1.4l-10,7.1V6.6z
			 M451.5,4.6l5.9-4.2h1.3l-7.2,5.2V4.6z M451.5,2.7l3.1-2.2h1.4l-4.5,3.2V2.7z M451.5,0.8l0.4-0.3h1.3l-1.7,1.2V0.8z M451.5,10.5
			l5.8-4.1v1l-5.8,4V10.5z M451.5,12.5l5.8-4.1v1l-5.8,4V12.5z M451.5,14.4l5.8-4v1l-5.8,4.1V14.4z M451.5,16.4l5.8-4v0.6h0.6
			l-6.4,4.5V16.4z M451.5,20.3l10.5-7.4h1.4l-12,8.4V20.3z M451.5,18.3l7.8-5.4h1.4l-9.2,6.4V18.3z M451.5,22.2l5.8-4v1l-5.8,4V22.2
			z M451.5,24.2l5.8-4v1l-5.8,4V24.2z M451.5,26.1l5.8-4v1l-5.8,4V26.1z M451.5,28.1l6.4-4.5h1.4l-7,4.9h-0.8V28.1z M453.7,28.5
			l7-4.9h1.4l-6.9,4.9H453.7z M456.5,28.5l7-4.9h1.4l-7,4.9H456.5z M457.8,17.8l7-4.9h1.4l-7,4.9H457.8z M458.8,5.4l7-4.9h1.4
			l-7,4.9H458.8z M459.3,28.5l7-4.9h1.4l-6.9,4.9H459.3z M460.6,17.8l6.2-4.4v1l-4.8,3.4H460.6z M468.7,1.4l-5.7,4h-1.4l7-4.9h0.1
			V1.4z M469,24.6l-5.6,3.9H462l7-4.9V24.6z M463.4,17.8l3.4-2.4v1l-2,1.4H463.4z M464.4,5.4l4.3-3v1l-2.9,2H464.4z M464.8,28.5
			l4.2-2.9v1l-2.8,2H464.8z M466.2,17.8l0.6-0.4v0.4H466.2z M467.2,5.4l1.5-1v1H467.2z M467.6,28.5l1.4-1v1H467.6z"/>
		<path id="XMLID_4442_" class="st0" d="M487.7,0.5l-11,7.7v-1l9.6-6.8C486.8,0.5,487.2,0.5,487.7,0.5z M476.6,5.3l6.8-4.8h1.4
			l-8.2,5.8V5.3z M476.6,3.3l4-2.8h1.4l-5.4,3.8V3.3z M476.6,1.4l1.3-0.9h1.4l-2.6,1.9V1.4z M482.4,6.1l-5.8,4v-1l12.1-8.5
			c0.4,0.1,0.8,0.1,1.1,0.2l-6.3,4.4h-1.2V6.1z M476.6,11.2l5.8-4v1l-5.8,4V11.2z M497.3,9.4l-20.6,14.4v-1l10.7-7.5
			c1.7-0.3,3-1.2,3.6-2.5l6.2-4.3C497.2,8.8,497.3,9.1,497.3,9.4z M476.6,13.1l5.8-4v1l-5.8,4V13.1z M476.6,15l5.8-4v1l-5.8,4.1V15z
			 M476.6,17l5.8-4v1l-5.8,4V17z M476.6,19l5.8-4v0.6h0.5l-6.3,4.4V19z M485.7,15.5l-9.1,6.4v-1l7.7-5.4H485.7z M476.6,24.8l5.8-4v1
			l-5.8,4V24.8z M476.6,26.8l5.8-4v1l-5.8,4V26.8z M477,28.5l5.4-3.8v1l-4,2.8H477z M479.8,28.5l2.6-1.8v1l-1.2,0.9H479.8z
			 M497.3,11.4L483.4,21l-0.6-0.6l14.5-10.1C497.3,10.7,497.3,11.1,497.3,11.4z M496.7,13.7l-12.2,8.5l-0.6-0.6l13.1-9.2
			C497,12.8,496.9,13.3,496.7,13.7z M491.7,1.6l-5.3,3.7c-0.4,0-0.9,0-1.4,0l5.8-4.1C491.1,1.3,491.4,1.4,491.7,1.6z M485.1,22.8
			l4.1-2.9l0.6,0.6l-4.1,2.9L485.1,22.8z M486.2,24l4.1-2.9l0.6,0.6l-4.2,2.9L486.2,24z M487.4,25.1l4.2-2.9l0.6,0.6l-4.2,2.9
			L487.4,25.1z M493.3,2.4l-4.7,3.3c-0.3-0.1-0.6-0.2-1-0.3l4.9-3.4C492.8,2.1,493.1,2.3,493.3,2.4z M488.5,26.3l4.2-3l0.6,0.6
			l-4.2,2.9L488.5,26.3z M494.5,3.5L490,6.6c-0.2-0.2-0.4-0.4-0.7-0.5l4.6-3.2C494.2,3.1,494.4,3.3,494.5,3.5z M489.6,19.6l6.4-4.5
			C494.7,17.3,492.5,18.8,489.6,19.6z M489.6,27.4l4.2-3l0.6,0.6l-4.3,3L489.6,27.4z M495.6,4.7L491,7.9c-0.1-0.2-0.2-0.5-0.4-0.7
			l4.5-3.2C495.3,4.3,495.5,4.5,495.6,4.7z M491,28.5l4-2.9l0.6,0.6l-3.3,2.3H491z M496.4,6.1l-5,3.5c0-0.3-0.1-0.6-0.2-0.9l4.7-3.4
			C496.2,5.6,496.3,5.8,496.4,6.1z M497,7.6l-5.6,3.9c0.1-0.3,0.1-0.6,0.1-0.9l5.2-3.7C496.8,7.1,496.9,7.4,497,7.6z M493.7,28.5
			l2.4-1.7l0.6,0.6l-1.6,1.1H493.7z M496.5,28.5l0.9-0.6l0.6,0.6H496.5z"/>
	</g>
</g>
</svg>
