<?xml version="1.0" encoding="utf-8"?>
<!-- Generator: Adobe Illustrator 19.0.0, SVG Export Plug-In . SVG Version: 6.00 Build 0)  -->
<svg version="1.1" id="Layer_1" xmlns="http://www.w3.org/2000/svg" xmlns:xlink="http://www.w3.org/1999/xlink" x="0px" y="0px"
	 viewBox="0 0 247.9 36.9" style="enable-background:new 0 0 247.9 36.9;" xml:space="preserve">
<style type="text/css">
	.st0{fill:#414142;}
	.st1{fill:#FFDB00;}
</style>
<g>
	<g id="XMLID_33_">
		<path id="XMLID_34_" class="st0" d="M0,9.1l12.2-8.5h1.6L0.6,9.8L0,9.1z M15.9,1.3l-14.2,10l-0.6-0.7l14.3-10h0.5V1.3z M10.2,0.5
			h0.6L1.2,7.2L10.2,0.5z M2.8,12.8L2.2,12l13.7-9.6v1.1L9.4,8V7.9L2.8,12.8z M9.4,9.1l6.5-4.5v1.1l-6.5,4.5V9.1z M9.4,11.3l6.5-4.5
			v1.1l-6.5,4.5V11.3z M9.4,13.5L15.9,9v1.1l-6.5,4.5V13.5z M9.4,15.7l6.5-4.5v1.1l-6.5,4.5V15.7z M9.4,17.9l6.5-4.5v1.1L9.4,19
			V17.9z M9.4,20.1l6.5-4.5v1.1l-6.5,4.5V20.1z M9.4,22.3l6.5-4.5v1.1l-6.5,4.5V22.3z M9.4,24.5l6.5-4.5V21l-6.5,4.5V24.5z
			 M9.4,26.7l6.5-4.5v1.1l-6.5,4.5V26.7z M9.4,28.9l6.5-4.5v1.1L9.4,30V28.9z M9.4,32v-0.9l6.5-4.5v1.1L9.6,32H9.4z M11.2,32
			l4.7-3.3v1.1L12.8,32H11.2z M14.3,32l1.6-1.1V32H14.3z"/>
		<path id="XMLID_52_" class="st0" d="M26,5.8l7.6-5.3h1.6L27.3,6H26V5.8z M26,3.7l4.5-3.1h1.6L26,4.8V3.7z M26,1.5l1.3-0.9h1.6
			l-2.9,2V1.5z M28.9,6l7.8-5.5h1.6L30.5,6H28.9z M30.3,32l0.4-0.9l9.8-6.9l-0.6,1.6L31,32H30.3z M31.9,28l9.7-6.8L41,22.7l-9.7,6.9
			L31.9,28z M32.1,6l7.8-5.5h1.6L33.6,6H32.1z M32.6,32l6.6-4.6l-0.6,1.6L34.1,32H32.6z M33.3,24.9l9.6-6.7l-0.6,1.6l-9.7,6.8
			L33.3,24.9z M34.6,21.8l9.6-6.7l-0.7,1.6l-9.6,6.7L34.6,21.8z M35.2,6L43,0.5h1.6L36.7,6H35.2z M35.9,18.7l9.5-6.6l-0.6,1.5
			l-9.5,6.7L35.9,18.7z M35.7,32l2.2-1.6L37.2,32H35.7z M37.2,15.6L46.6,9L46,10.5l-9.4,6.6L37.2,15.6z M38.5,12.5l9.4-6.6l-0.6,1.6
			l-9.4,6.6L38.5,12.5z M38.3,6l7.8-5.5h1.6L39.8,6H38.3z M39.8,9.4l8.6-6v1.1l-9.2,6.4L39.8,9.4z M41.1,6.2l7.2-5.1v1.1l-7.9,5.5
			L41.1,6.2z"/>
		<path id="XMLID_71_" class="st0" d="M54.2,22.7l0.3-0.8l9-6.2L63,17.1l-8.8,6.1V22.7z M54.2,24.3l8.3-5.8L62,20l-7.7,5.4V24.3z
			 M54.2,26.8v-0.3l7.4-5.2h1.6l-7.9,5.5H54.2z M55.5,19.1l9.1-6.4L64,14.2l-9,6.3L55.5,19.1z M56.5,16.1l9.1-6.3l-0.5,1.5l-9,6.3
			L56.5,16.1z M56.9,26.8l7.9-5.5h1.5l-7.8,5.5H56.9z M57.6,13.1l9.1-6.3l-0.5,1.5l-9,6.3L57.6,13.1z M58.6,10.2l9.1-6.3l-0.5,1.5
			l-9,6.3L58.6,10.2z M68.2,2.5l-9,6.2l0.5-1.4L67.2,2l1,0.3L68.2,2.5z M60.1,26.8l7.9-5.5h1.5l-7.8,5.5H60.1z M60.7,4.4l4.4-3.1
			l1.1,0.4l-6,4.2L60.7,4.4z M61.6,1.6l1.4-1L64.1,1l-2.9,2L61.6,1.6z M63.2,26.8l12.9-9.1v1.1l-11.4,8H63.2z M66.3,26.8l9.8-6.9V21
			l-8.2,5.8H66.3z M69.5,26.8l7.8-5.5h1.6l-9.3,6.5v-1H69.5z M76.1,14.5L69.6,19v-1.1l6.5-4.6V14.5z M69.6,15.7l3.4-2.4h1.5
			l-4.9,3.4V15.7z M69.6,13.5l0.2-0.1h1.6l-1.8,1.3V13.5z M69.6,20.1l6.5-4.5v1.1l-6.5,4.5V20.1z M69.6,28.9l10.3-7.2v1.1L69.6,30
			V28.9z M76.1,27.6L69.9,32h-0.2v-0.9l10.3-7.2v1.1l-2.6,1.8h-1.2V27.6z M71.4,32l4.7-3.3v1.1L73,32H71.4z M74.5,32l1.6-1.1V32
			H74.5z M78.9,26.8l1-0.7v0.7H78.9z"/>
		<path id="XMLID_96_" class="st0" d="M93.2,0.5h0.5l-0.3,0.3L93.2,0.5z M93.8,1.6l1.5-1h1.6l-2.6,1.9L93.8,1.6z M94.6,3.2l3.7-2.7
			h1.6L95,3.9L94.6,3.2z M95.5,4.8l5.1-3.6l0.4,0.8l-5.1,3.7L95.5,4.8z M96.3,6.4l5.1-3.6l0.4,0.8l-5.1,3.6L96.3,6.4z M97.2,8
			l5.1-3.6l0.4,0.8l-5,3.6L97.2,8z M98.1,9.6l5-3.6l0.4,0.8l-5,3.6L98.1,9.6z M98.9,11.1l5-3.5l0.4,0.8l-5,3.5L98.9,11.1z
			 M99.8,12.7l5-3.5l0.4,0.8l-5,3.5L99.8,12.7z M100.6,14.3l4.9-3.5l0.4,0.9l-4.9,3.4L100.6,14.3z M101.5,16l4.9-3.5l0.4,0.8
			l-4.9,3.4L101.5,16z M102.3,17.5l4.9-3.4l0.4,0.8l-4.9,3.3L102.3,17.5z M103.2,19.1l4.9-3.4l0.1,0.3l0.3-0.6l10.8-7.6l-0.9,1.8
			l-14.7,10.3L103.2,19.1z M104.1,20.7l13.3-9.4l-0.9,1.8l-11.9,8.4L104.1,20.7z M105,22.4L105,22.4l10.5-7.5l-0.9,1.8l-9.6,6.7
			V22.4z M105,24.5l8.6-6.1l-0.9,1.8l-7.7,5.4V24.5z M111.4,23.2l-6.5,4.5v-1.1l6.7-4.8l-0.3,0.5V23.2z M105,28.9l6.5-4.5v1.1
			L105,30V28.9z M105,31.1l6.5-4.5v1.1l-6.2,4.4H105V31.1z M106.8,32l4.7-3.3v1.1l-3.1,2.2H106.8z M110.3,12l10.9-7.6l-0.9,1.7
			l-10.9,7.6L110.3,12z M109.9,32l1.6-1.1V32H109.9z M112,8.6l11.1-7.8l-0.9,1.8l-11,7.8L112,8.6z M113.8,5.1l6.5-4.6h1.6l-9,6.3
			L113.8,5.1z M115.5,1.7l1.8-1.2h1.5l-4.1,2.9L115.5,1.7z"/>
		<path id="XMLID_122_" class="st0" d="M136.7,6.2l-6.5,4.5V9.6l12.9-9.1h1.5L136.9,6h-0.2V6.2z M130.2,7.4l9.8-6.9h1.5l-11.3,8V7.4
			z M130.2,5.2l6.7-4.7h1.5l-8.1,5.8V5.2z M130.2,3l3.5-2.5h1.5l-5,3.6V3z M130.2,0.8l0.4-0.3h1.5l-1.9,1.4V0.8z M130.2,11.8
			l6.5-4.6v1.1l-6.5,4.5V11.8z M130.2,14l6.5-4.6v1.1l-6.5,4.5V14z M130.2,16.2l6.5-4.5v1.1l-6.5,4.6V16.2z M130.2,18.4l6.5-4.5v0.6
			h0.7l-7.1,5V18.4z M130.2,22.8l11.8-8.3h1.6l-13.4,9.4V22.8z M130.2,20.6l8.7-6.1h1.6l-10.3,7.2V20.6z M130.2,25l6.5-4.5v1.1
			l-6.5,4.5V25z M130.2,27.1l6.5-4.5v1.1l-6.5,4.5V27.1z M130.2,29.3l6.5-4.5v1.1l-6.5,4.5V29.3z M130.2,31.6l7.2-5h1.6l-7.8,5.5
			h-0.9V31.6z M132.7,32l7.9-5.5h1.5l-7.8,5.5H132.7z M135.8,32l7.8-5.5h1.6l-7.8,5.5H135.8z M137.3,20l7.8-5.5h1.6l-7.8,5.5H137.3z
			 M138.5,6l7.8-5.5h1.5L140,6H138.5z M138.9,32l7.8-5.5h1.5l-7.8,5.5H138.9z M140.5,20l7-4.9v1.1L142,20H140.5z M149.5,1.6L143.1,6
			h-1.6l7.8-5.5h0.1V1.6z M149.9,27.6l-6.3,4.4H142l7.9-5.5V27.6z M143.6,20l3.8-2.7v1.1l-2.3,1.6H143.6z M144.7,6l4.8-3.4v1.1
			L146.3,6H144.7z M145.2,32l4.7-3.3v1.1l-3.1,2.2H145.2z M146.7,20l0.7-0.5V20H146.7z M147.8,6l1.7-1.1V6H147.8z M148.3,32l1.6-1.1
			V32H148.3z"/>
		<path id="XMLID_152_" class="st0" d="M155.8,29.8l11.2-7.8h1.6l-13.5,9.4L155.8,29.8z M163.2,27.9l-5.8,4.1h-1.6l14.4-10.1h1.6
			l-7.7,5.4h-0.6L163.2,27.9z M157,26.7l9.1-6.4l-0.6,1.6l-9.1,6.4L157,26.7z M158.3,23.5l8.9-6.2l-0.6,1.5l-9,6.3L158.3,23.5z
			 M159.4,20.6l8.9-6.3l-0.6,1.5l-9,6.3L159.4,20.6z M158.9,32l3.7-2.5l-0.6,1.5l-1.5,1.1H158.9z M160.7,17.5l8.9-6.2l-0.6,1.5
			l-8.9,6.3L160.7,17.5z M170.1,10l-8.8,6.1l0.6-1.5l12.9-9.1l0.4,0.9l-4.9,3.4l0-0.1L170.1,10z M163.2,11.4l10.9-7.6l0.4,0.9
			L162.5,13L163.2,11.4z M164.4,8.4l9-6.3l0.4,0.9l-10,6.9L164.4,8.4z M173.1,1.3L165,6.9l0.7-1.7l6.8-4.7h0.3L173.1,1.3z
			 M165.6,27.3l7.7-5.4h1.5l-7.7,5.4H165.6z M166.9,2.2l2.5-1.7h1.5l-4.6,3.2L166.9,2.2z M167.6,0.5h0.5L167.4,1L167.6,0.5z
			 M168.7,27.3l11.6-8.1l0.4,0.9l-10.4,7.2H168.7z M170.5,10.6l4.9-3.5l0.4,0.9l-5,3.4L170.5,10.6z M171.2,12.4l5-3.4l0.4,0.9
			l-5,3.4L171.2,12.4z M171.8,14l5-3.4l0.4,0.9l-5,3.4L171.8,14z M171.8,27.3l9.2-6.4l0.4,0.9l-8,5.5H171.8z M172.6,15.9l5-3.6
			l0.4,0.9l-5,3.5L172.6,15.9z M173.2,17.6l5-3.6l0.4,0.9l-5,3.6L173.2,17.6z M173.9,19.3l5.1-3.5l0.3,0.8l-5.1,3.6L173.9,19.3z
			 M174.5,21l5.1-3.6l0.3,0.8l-5.1,3.6L174.5,21z M175,27.3l6.7-4.7l0.4,0.9l-5.6,3.8H175z M177.2,27.9l5.2-3.5l0.4,0.9l-5.3,3.5
			L177.2,27.9z M177.9,29.7l5.2-3.7l0.4,0.9l-5.2,3.7L177.9,29.7z M178.5,31.4l5.2-3.8l0.4,0.9l-4.9,3.4h-0.5L178.5,31.4z M180.8,32
			l3.6-2.6l0.4,0.9l-2.4,1.7H180.8z M183.9,32l1.2-0.9l0.4,0.9H183.9z"/>
		<path id="XMLID_182_" class="st0" d="M201.8,0.5c0.5,0,1,0,1.6,0l-11.5,8.1V7.5L201.8,0.5z M191.8,5.3l6.8-4.8h1.6l-8.4,5.9V5.3z
			 M191.8,3.1l3.7-2.6h1.6l-5.3,3.7V3.1z M191.8,0.9l0.5-0.4h1.6L191.8,2V0.9z M198.3,6.3l-6.5,4.5V9.7l12.8-9.1
			c0.4,0,0.9,0.1,1.4,0.2l-7.3,5.1h-0.5V6.3z M191.8,11.9l6.5-4.5v1.1l-6.5,4.5V11.9z M191.8,14.1l6.5-4.6v1.1l-6.5,4.5V14.1z
			 M198.3,23.8l-6.5,4.5v-1.1L215,11c0,0.3,0,0.8,0,1.1l-15.4,10.7h-1.4V23.8z M191.8,16.3l6.5-4.6v1.1l-6.5,4.5V16.3z M191.8,18.5
			l6.5-4.5V15l-6.5,4.6V18.5z M191.8,20.7l6.5-4.5v1.1l-6.5,4.6V20.7z M204.7,17.1l-12.9,9v-1.1l10.9-7.6
			C203.4,17.4,204.1,17.3,204.7,17.1z M191.8,22.9l7.8-5.4h1.5l-9.3,6.5V22.9z M191.8,29.5l6.5-4.5V26l-6.5,4.5V29.5z M191.8,32
			v-0.4l6.5-4.5v1.1l-5.3,3.8H191.8z M194.5,32l3.8-2.7v1.1L196,32H194.5z M197.6,32l0.7-0.5V32H197.6z M208.2,1.5l-6.4,4.4h-1.5
			l6.8-4.8C207.5,1.3,207.8,1.4,208.2,1.5z M201.2,22.9l13.7-9.6c0,0.4-0.2,1-0.3,1.3l-12.1,8.5C202.1,22.9,201.6,22.9,201.2,22.9z
			 M210,2.4l-5.4,3.8c-0.4-0.1-0.8-0.2-1.3-0.2l5.8-4C209.5,2.1,209.8,2.3,210,2.4z M203.6,23.4l10.5-7.3c-0.3,0.7-0.7,1.3-1.1,1.9
			l-8.5,6C204.2,23.7,203.9,23.5,203.6,23.4z M205.3,24.4l4.5-3.1c0.3,0.2,0.5,0.4,0.8,0.6l-4.6,3.2
			C205.8,24.8,205.5,24.6,205.3,24.4z M211.6,3.6l-5.1,3.5c-0.2-0.2-0.6-0.4-0.9-0.5l5.2-3.6C211.1,3.2,211.4,3.4,211.6,3.6z
			 M206.5,25.7l4.6-3.3c0.2,0.2,0.5,0.4,0.6,0.7l-4.8,3.3C206.9,26.2,206.7,26,206.5,25.7z M212.8,4.9l-5.1,3.6
			c-0.2-0.3-0.4-0.6-0.6-0.8l5.1-3.5C212.4,4.4,212.6,4.7,212.8,4.9z M207.4,27.3l4.9-3.4c0.2,0.2,0.4,0.5,0.5,0.8l-5,3.5
			C207.7,27.9,207.6,27.5,207.4,27.3z M214.9,9.9l-7.4,5.2c0.3-0.4,0.6-1,0.7-1.6l6.5-4.6C214.8,9.3,214.9,9.6,214.9,9.9z M208.1,29
			l5.2-3.6c0.1,0.3,0.3,0.6,0.4,0.9l-5.3,3.8C208.2,29.8,208.1,29.3,208.1,29z M213.8,6.4l-5.4,3.8c-0.1-0.3-0.1-0.6-0.3-0.9
			l5.2-3.7C213.5,5.9,213.7,6.2,213.8,6.4z M208.4,31l5.5-3.8c0.1,0.3,0.2,0.6,0.2,0.9l-5.7,4L208.4,31z M214.5,8.1l-6,4.2
			c0-0.4,0-0.8,0-1.2l5.7-3.9C214.3,7.5,214.4,7.8,214.5,8.1z M214.6,30l-3,2h-1.6l4.4-3.1C214.5,29.3,214.5,29.6,214.6,30z
			 M213.2,32l1.5-1.2c0,0.3,0.1,0.8,0.1,1.2H213.2z"/>
		<path id="XMLID_216_" class="st0" d="M221.6,24.1l0.6-0.5h1.6l-2,1.4C221.7,24.8,221.6,24.4,221.6,24.1z M234.9,0.4l-13.1,9.2
			c0-0.3,0-0.7,0-1.1l12-8.4C234.1,0.2,234.5,0.3,234.9,0.4z M230.8,0c0.5,0,1.1,0,1.6,0l-10.6,7.5c0-0.4,0.1-0.9,0.2-1.3L230.8,0z
			 M228.6,7.1l-6.4,4.5c-0.1-0.3-0.2-0.7-0.2-1.1L236,0.8c0.3,0.1,0.7,0.3,1,0.4l-6.3,4.4C229.6,5.8,228.9,6.4,228.6,7.1z M222,26
			l3.3-2.4h1.5l-4.5,3.2C222.2,26.6,222.1,26.3,222,26z M228.3,8.4c0,0.3,0,0.7,0.2,1.1l-5.6,3.8c-0.2-0.2-0.3-0.5-0.4-0.8
			L228.3,8.4z M222.5,4.8c0.3-0.7,0.8-1.4,1.5-2.1l2.2-1.6c0.8-0.4,1.8-0.7,2.7-0.9L222.5,4.8z M228.4,24.8l-5.2,3.6
			c-0.2-0.3-0.3-0.5-0.5-0.8l5.4-3.8C228.2,24.2,228.3,24.5,228.4,24.8z M229.5,10.9l-5.5,3.9c-0.2-0.2-0.4-0.4-0.6-0.7l5.5-3.8
			C229,10.5,229.2,10.7,229.5,10.9z M229.5,26.2l-5.1,3.6c-0.2-0.2-0.4-0.4-0.6-0.6l5.1-3.6C229,25.8,229.2,26,229.5,26.2z
			 M231.1,12l-5.8,4l-0.7-0.6l5.7-3.9C230.5,11.6,230.8,11.8,231.1,12z M231.6,26.9l-5.8,4c-0.2-0.2-0.5-0.3-0.8-0.5l5.3-3.7
			C230.8,26.8,231.2,26.9,231.6,26.9z M232.9,12.8l-6,4.2c-0.3-0.2-0.6-0.4-0.8-0.5l5.9-4.1L232.9,12.8z M242.2,21.7l-14.5,10.1
			c-0.3-0.1-0.7-0.2-1-0.4l6.6-4.6c0.9-0.2,1.5-0.7,1.9-1.3l6.8-4.7C242.1,21,242.2,21.4,242.2,21.7z M234.8,13.7l-6.1,4.3
			c-0.3-0.2-0.6-0.3-0.9-0.5l6.1-4.3C234.2,13.4,234.5,13.5,234.8,13.7z M242.3,22.8c0,0.3,0,0.7,0,1L230,32.4
			c-0.5-0.1-0.8-0.1-1.2-0.2L242.3,22.8z M236.7,14.6l-6,4.2c-0.3-0.1-0.7-0.3-0.9-0.4l6.1-4.3C236.1,14.3,236.4,14.5,236.7,14.6z
			 M232.9,32.5c-0.5,0-1.1,0-1.6,0l10.8-7.6c0,0.4-0.2,0.9-0.3,1.3L232.9,32.5z M238.3,15.6l-5.8,4.1c-0.3-0.2-0.6-0.3-1-0.5l6-4.1
			C237.8,15.3,238.1,15.5,238.3,15.6z M232.3,5.6l5.5-3.9c0.3,0.2,0.6,0.4,0.8,0.6L233.3,6C233,5.8,232.6,5.7,232.3,5.6z
			 M239.7,16.8l-5.5,3.9l-0.8-0.6l5.7-4C239.3,16.4,239.5,16.6,239.7,16.8z M234,6.5l5.2-3.6c0.2,0.2,0.4,0.4,0.6,0.7l-5.2,3.7
			C234.5,7.1,234.3,6.8,234,6.5z M234.8,8.2l5.5-3.8c0.2,0.3,0.3,0.6,0.4,0.8l-5.2,3.6h-0.7C234.9,8.6,234.9,8.4,234.8,8.2z
			 M241,18.2l-5.5,3.9c-0.1-0.2-0.3-0.5-0.5-0.7l5.5-3.9C240.6,17.7,240.8,18,241,18.2z M235,32.2l6.3-4.5
			C240.1,30,238,31.6,235,32.2z M241.8,19.8l-6,4.2c0-0.3,0-0.7,0-1l5.7-4L241.8,19.8z M241.3,7.1l-2.6,1.8h-1.6l3.9-2.7
			C241.1,6.4,241.2,6.8,241.3,7.1z M240.2,8.8l1.2-0.8l0,0.8H240.2z"/>
	</g>
	<g id="XMLID_1_">
		<path id="XMLID_2_" class="st1" d="M4,13.9l5.3-4v6.3l-0.9,0.7L4,13.9z M17.2,33.4V1.7l4.4,3.1v31.6h-6.3l-4.3-3H17.2z"/>
		<path id="XMLID_5_" class="st1" d="M27.4,7.4h13.4l-1.3,3h-7.7L27.4,7.4z M49.6,5.6V1.7L54,4.8v3.9L42.7,36.4h-6.9l-4.3-3h6.8
			L49.6,5.6z"/>
		<path id="XMLID_8_" class="st1" d="M69.6,31.2H60l-4.3-3h13.9V31.2z M69.3,3.5l4.5,3l-2.5,6.9h-1.8v5l-1.1,3H63L69.3,3.5z
			 M77.4,21.3v-6.8l4.4,3.1v5.3l3.8,2.7v5.6h-3.8v5.2h-6.3l-4.3-3h6.3v-5.2h3.8v-6.8H77.4z"/>
		<path id="XMLID_12_" class="st1" d="M102.1,2.1l3.6,2.6l4.3,8.2l-1.2,2.4L102.1,2.1z M112.7,23.2l11.7-21.6l4.4,3.1l-11.7,21.6
			v10.1h-6.3l-4.3-3h6.3V23.2z"/>
		<path id="XMLID_15_" class="st1" d="M151.2,33.4v-5.7l4.4,3.1v5.6h-19.6l-4.3-3H151.2z M150.8,7.4V1.7l4.4,3.1v5.6h-12.9v4.1h-4.4
			V7.4H150.8z M148.7,21.3v-5.7l4.4,3.1v5.6h-10.8v2.2h-4.4v-5.2H148.7z"/>
		<path id="XMLID_19_" class="st1" d="M178.3,31.7h-9.4l-1.8,4.7h-6.7l-4.3-3h6.6l1.8-4.7h12.7L178.3,31.7z M170.8,12.3l2.7,7.2
			l-0.9,2.5H167L170.8,12.3z M174.3,1.9l4.3,3l12.7,31.5h-6.7l-4.3-3h6.7L174.3,1.9z"/>
		<path id="XMLID_23_" class="st1" d="M199.5,24.2h1.6c2.4,0,4.3,1.1,5.6,3.1c-0.4,0-0.7,0-1.1,0h-1.8v9.2h-6.3l-4.3-3h6.3V24.2z
			 M207.6,10.3h-3.7v7.1h-4.4V7.3h3.6c2.4,0,4.2,1,4.9,3.1C207.9,10.3,207.8,10.3,207.6,10.3z M215.3,24.8c2.7,2.1,4.8,5.8,5,10.1
			l0.1,1.5h-6.2l-4.3-3h6.1c-0.2-6.1-2.3-9.6-5-11.7c3.3-1.9,5.2-5.4,5.2-9.4c0-2.7-0.7-4.9-2.2-6.7l2.2,1.5
			c3.1,2.2,4.4,4.6,4.4,8.4C220.7,19.4,218.7,22.8,215.3,24.8z"/>
		<path id="XMLID_27_" class="st1" d="M243.6,24c0-1.8-0.3-3.2-0.9-4.4l1.1,0.8c2.6,1.9,4.2,4,4.2,7.1c0,5.6-4.2,9.5-10.8,9.5
			c-2.1,0-4.1-0.6-6-1.9l-2.5-1.7c1.2,0.5,2.7,0.6,4,0.6C239.4,33.9,243.6,30.1,243.6,24z M233.9,12.3c0,0.3,0,0.5,0.1,0.8
			c-3.5-1.5-4.5-2.5-4.5-4c0-1.2,0.8-2.2,2.5-2.2c1.9,0,2.8,1.3,2.7,3.2C234.2,10.6,233.9,11.5,233.9,12.3z M232.5,27
			c-0.6,0-1.2-0.2-1.7-0.5c-0.5-0.3-0.9-0.8-1.2-1.5L232.5,27z M234.9,22.4c-0.2-0.3-0.9-0.8-1.4-1.1c-0.4-0.2-1.2-0.7-2.4-1.2
			L234.9,22.4z M236.4,10.2h6.2c0-2.2-0.5-4.2-1.7-5.9l2.5,1.7c2.3,1.6,3.6,3.8,3.6,7.3h-6.4L236.4,10.2z"/>
	</g>
</g>
</svg>
