<?xml version="1.0" encoding="utf-8"?>
<!-- Generator: Adobe Illustrator 19.0.0, SVG Export Plug-In . SVG Version: 6.00 Build 0)  -->
<svg version="1.1" id="Layer_1" xmlns="http://www.w3.org/2000/svg" xmlns:xlink="http://www.w3.org/1999/xlink" x="0px" y="0px"
	 viewBox="0 0 59.2 5.7" style="enable-background:new 0 0 59.2 5.7;" xml:space="preserve">
<style type="text/css">
	.st0{fill:#FFDB00;}
</style>
<g>
	<path class="st0" d="M0,1c0.3-0.4,0.6-0.7,1-1l1.9,1.9L4.7,0c0.4,0.3,0.7,0.6,1,1L3.8,2.8l1.9,1.9c-0.3,0.4-0.6,0.7-1,1L2.9,3.8
		L1,5.7c-0.4-0.3-0.7-0.6-1-1l1.9-1.9L0,1z"/>
	<path class="st0" d="M26.7,1c0.3-0.4,0.6-0.7,1-1l1.9,1.9L31.5,0c0.4,0.3,0.7,0.6,1,1l-1.9,1.9l1.9,1.9c-0.3,0.4-0.6,0.7-1,1
		l-1.9-1.9l-1.9,1.9c-0.4-0.3-0.7-0.6-1-1l1.9-1.9L26.7,1z"/>
	<path class="st0" d="M53.5,1c0.3-0.4,0.6-0.7,1-1l1.9,1.9L58.2,0c0.4,0.3,0.7,0.6,1,1l-1.9,1.9l1.9,1.9c-0.3,0.4-0.6,0.7-1,1
		l-1.9-1.9l-1.9,1.9c-0.4-0.3-0.7-0.6-1-1l1.9-1.9L53.5,1z"/>
</g>
</svg>
