<?xml version="1.0" encoding="UTF-8" standalone="no"?>
<!-- Generator: Adobe Illustrator 16.0.0, SVG Export Plug-In . SVG Version: 6.00 Build 0)  -->

<svg
   xmlns:dc="http://purl.org/dc/elements/1.1/"
   xmlns:cc="http://creativecommons.org/ns#"
   xmlns:rdf="http://www.w3.org/1999/02/22-rdf-syntax-ns#"
   xmlns:svg="http://www.w3.org/2000/svg"
   xmlns="http://www.w3.org/2000/svg"
   xmlns:sodipodi="http://sodipodi.sourceforge.net/DTD/sodipodi-0.dtd"
   xmlns:inkscape="http://www.inkscape.org/namespaces/inkscape"
   version="1.1"
   id="Layer_1"
   x="0px"
   y="0px"
   width="16"
   height="16"
   viewBox="240 -40 16 16"
   enable-background="new 240 -40 800 800"
   xml:space="preserve"
   inkscape:version="0.48.4 r9939"
   sodipodi:docname="grey_dots_favicon.svg"><metadata
     id="metadata3029"><rdf:RDF><cc:Work
         rdf:about=""><dc:format>image/svg+xml</dc:format><dc:type
           rdf:resource="http://purl.org/dc/dcmitype/StillImage" /><dc:title></dc:title></cc:Work></rdf:RDF></metadata><defs
     id="defs3027" /><sodipodi:namedview
     pagecolor="#ffffff"
     bordercolor="#666666"
     borderopacity="1"
     objecttolerance="10"
     gridtolerance="10"
     guidetolerance="10"
     inkscape:pageopacity="0"
     inkscape:pageshadow="2"
     inkscape:window-width="1863"
     inkscape:window-height="1059"
     id="namedview3025"
     showgrid="false"
     inkscape:zoom="52.948156"
     inkscape:cx="8.2829561"
     inkscape:cy="7.3729249"
     inkscape:window-x="57"
     inkscape:window-y="21"
     inkscape:window-maximized="1"
     inkscape:current-layer="layer2"
     borderlayer="true"
     showguides="true"
     inkscape:guide-bbox="true" /><g
     inkscape:groupmode="layer"
     id="layer2"
     inkscape:label="background"
     style="display:inline"
     transform="translate(0,-784)"><rect
       style="fill:#556b68;fill-opacity:1;fill-rule:nonzero;stroke:none"
       id="rect4072"
       width="0.075545594"
       height="0.15109119"
       x="126.9166"
       y="356.16962"
       transform="translate(240,-40)"
       ry="0.037772797" /><rect
       style="fill:#ffffff;fill-opacity:1;fill-rule:nonzero;stroke:none;display:inline"
       id="rect4076"
       width="15.951918"
       height="15.924455"
       x="240.03186"
       y="744.03931"
       ry="1.0292497" /></g><g
     inkscape:groupmode="layer"
     id="layer1"
     inkscape:label="dots"
     style="display:inline"
     transform="translate(0,-784)"
     sodipodi:insensitive="true"><g
       id="g3005"
       transform="matrix(0.04088581,0,0,0.04088581,221.80295,736.89044)"
       style="fill:#ffffff;fill-opacity:1;stroke:none"><path
         d="m 639.995,205.917 c -12.199,0 -22.127,9.93 -22.127,22.137 0,12.206 9.928,22.14 22.127,22.14 12.207,0 22.146,-9.934 22.146,-22.14 0.002,-12.207 -9.94,-22.137 -22.146,-22.137 z"
         id="path3007"
         inkscape:connector-curvature="0"
         style="fill:#ffffff;fill-opacity:1;stroke:none" /><path
         d="m 639.997,352.323 c -8.718,0 -15.81,7.091 -15.81,15.812 0,8.722 7.092,15.812 15.81,15.812 8.718,0 15.816,-7.091 15.816,-15.812 -10e-4,-8.721 -7.098,-15.812 -15.816,-15.812 z"
         id="path3009"
         inkscape:connector-curvature="0"
         style="fill:#ffffff;fill-opacity:1;stroke:none" /><path
         d="m 639.997,495.109 c -5.227,0 -9.479,4.254 -9.479,9.485 0,5.236 4.255,9.488 9.479,9.488 5.234,0 9.496,-4.252 9.496,-9.488 -0.001,-5.231 -4.261,-9.485 -9.496,-9.485 z"
         id="path3011"
         inkscape:connector-curvature="0"
         style="fill:#ffffff;fill-opacity:1;stroke:none" /><path
         d="m 498.675,353.562 c -8.72,0 -15.811,7.092 -15.811,15.812 0,8.724 7.091,15.812 15.811,15.812 8.724,0 15.814,-7.09 15.814,-15.812 10e-4,-8.72 -7.09,-15.812 -15.814,-15.812 z"
         id="path3013"
         inkscape:connector-curvature="0"
         style="fill:#ffffff;fill-opacity:1;stroke:none" /><path
         d="m 781.32,353.562 c -8.719,0 -15.811,7.092 -15.811,15.812 0,8.724 7.092,15.812 15.811,15.812 8.717,0 15.814,-7.09 15.814,-15.812 0.003,-8.72 -7.097,-15.812 -15.814,-15.812 z"
         id="path3015"
         inkscape:connector-curvature="0"
         style="fill:#ffffff;fill-opacity:1;stroke:none" /><path
         d="m 710.35,280.06 c -10.471,0 -18.979,8.511 -18.979,18.973 0,10.467 8.508,18.977 18.979,18.977 10.457,0 18.971,-8.51 18.971,-18.977 -10e-4,-10.462 -8.514,-18.973 -18.971,-18.973 z"
         id="path3017"
         inkscape:connector-curvature="0"
         style="fill:#ffffff;fill-opacity:1;stroke:none" /><path
         d="m 567.846,280.06 c -10.468,0 -18.977,8.511 -18.977,18.973 0,10.467 8.509,18.977 18.977,18.977 10.459,0 18.974,-8.51 18.974,-18.977 -0.001,-10.462 -8.515,-18.973 -18.974,-18.973 z"
         id="path3019"
         inkscape:connector-curvature="0"
         style="fill:#ffffff;fill-opacity:1;stroke:none" /><path
         d="m 710.348,427.68 c -6.977,0 -12.652,5.672 -12.652,12.646 0,6.974 5.678,12.652 12.652,12.652 6.979,0 12.646,-5.68 12.646,-12.652 0,-6.973 -5.67,-12.646 -12.646,-12.646 z"
         id="path3021"
         inkscape:connector-curvature="0"
         style="fill:#ffffff;fill-opacity:1;stroke:none" /><path
         d="m 567.846,427.68 c -6.976,0 -12.655,5.672 -12.655,12.646 0,6.974 5.681,12.652 12.655,12.652 6.973,0 12.645,-5.68 12.645,-12.652 0,-6.973 -5.673,-12.646 -12.645,-12.646 z"
         id="path3023"
         inkscape:connector-curvature="0"
         style="fill:#ffffff;fill-opacity:1;stroke:none" /></g><g
       style="fill:#414141;fill-opacity:1;stroke:none"
       transform="matrix(0.04088581,0,0,0.04088581,221.80295,736.89044)"
       id="g4173"><path
         style="fill:#414141;fill-opacity:1;stroke:none"
         inkscape:connector-curvature="0"
         id="path4175"
         d="m 639.995,205.917 c -12.199,0 -22.127,9.93 -22.127,22.137 0,12.206 9.928,22.14 22.127,22.14 12.207,0 22.146,-9.934 22.146,-22.14 0.002,-12.207 -9.94,-22.137 -22.146,-22.137 z" /><path
         style="fill:#414141;fill-opacity:1;stroke:none"
         inkscape:connector-curvature="0"
         id="path4177"
         d="m 639.997,352.323 c -8.718,0 -15.81,7.091 -15.81,15.812 0,8.722 7.092,15.812 15.81,15.812 8.718,0 15.816,-7.091 15.816,-15.812 -10e-4,-8.721 -7.098,-15.812 -15.816,-15.812 z" /><path
         style="fill:#414141;fill-opacity:1;stroke:none"
         inkscape:connector-curvature="0"
         id="path4179"
         d="m 639.997,495.109 c -5.227,0 -9.479,4.254 -9.479,9.485 0,5.236 4.255,9.488 9.479,9.488 5.234,0 9.496,-4.252 9.496,-9.488 -0.001,-5.231 -4.261,-9.485 -9.496,-9.485 z" /><path
         style="fill:#414141;fill-opacity:1;stroke:none"
         inkscape:connector-curvature="0"
         id="path4181"
         d="m 498.675,353.562 c -8.72,0 -15.811,7.092 -15.811,15.812 0,8.724 7.091,15.812 15.811,15.812 8.724,0 15.814,-7.09 15.814,-15.812 10e-4,-8.72 -7.09,-15.812 -15.814,-15.812 z" /><path
         style="fill:#414141;fill-opacity:1;stroke:none"
         inkscape:connector-curvature="0"
         id="path4183"
         d="m 781.32,353.562 c -8.719,0 -15.811,7.092 -15.811,15.812 0,8.724 7.092,15.812 15.811,15.812 8.717,0 15.814,-7.09 15.814,-15.812 0.003,-8.72 -7.097,-15.812 -15.814,-15.812 z" /><path
         style="fill:#414141;fill-opacity:1;stroke:none"
         inkscape:connector-curvature="0"
         id="path4185"
         d="m 710.35,280.06 c -10.471,0 -18.979,8.511 -18.979,18.973 0,10.467 8.508,18.977 18.979,18.977 10.457,0 18.971,-8.51 18.971,-18.977 -10e-4,-10.462 -8.514,-18.973 -18.971,-18.973 z" /><path
         style="fill:#414141;fill-opacity:1;stroke:none"
         inkscape:connector-curvature="0"
         id="path4187"
         d="m 567.846,280.06 c -10.468,0 -18.977,8.511 -18.977,18.973 0,10.467 8.509,18.977 18.977,18.977 10.459,0 18.974,-8.51 18.974,-18.977 -0.001,-10.462 -8.515,-18.973 -18.974,-18.973 z" /><path
         style="fill:#414141;fill-opacity:1;stroke:none"
         inkscape:connector-curvature="0"
         id="path4189"
         d="m 710.348,427.68 c -6.977,0 -12.652,5.672 -12.652,12.646 0,6.974 5.678,12.652 12.652,12.652 6.979,0 12.646,-5.68 12.646,-12.652 0,-6.973 -5.67,-12.646 -12.646,-12.646 z" /><path
         style="fill:#414141;fill-opacity:1;stroke:none"
         inkscape:connector-curvature="0"
         id="path4191"
         d="m 567.846,427.68 c -6.976,0 -12.655,5.672 -12.655,12.646 0,6.974 5.681,12.652 12.655,12.652 6.973,0 12.645,-5.68 12.645,-12.652 0,-6.973 -5.673,-12.646 -12.645,-12.646 z" /></g></g></svg>