<?xml version="1.0" encoding="utf-8"?>
<!-- Generator: Adobe Illustrator 16.0.0, SVG Export Plug-In . SVG Version: 6.00 Build 0)  -->
<!DOCTYPE svg PUBLIC "-//W3C//DTD SVG 1.1//EN" "http://www.w3.org/Graphics/SVG/1.1/DTD/svg11.dtd">
<svg version="1.1" id="Layer_1" xmlns="http://www.w3.org/2000/svg" xmlns:xlink="http://www.w3.org/1999/xlink" x="0px" y="0px"
	 width="800px" height="800px" viewBox="240 -40 800 800" enable-background="new 240 -40 800 800" xml:space="preserve">
<g>
	<path fill="#231F20" d="M639.995,205.917c-12.199,0-22.127,9.93-22.127,22.137c0,12.206,9.928,22.14,22.127,22.14
		c12.207,0,22.146-9.934,22.146-22.14C662.143,215.847,652.201,205.917,639.995,205.917z"/>
	<path fill="#231F20" d="M639.997,352.323c-8.718,0-15.81,7.091-15.81,15.812c0,8.722,7.092,15.812,15.81,15.812
		c8.718,0,15.816-7.091,15.816-15.812C655.812,359.414,648.715,352.323,639.997,352.323z"/>
	<path fill="#231F20" d="M639.997,495.109c-5.227,0-9.479,4.254-9.479,9.485c0,5.236,4.255,9.488,9.479,9.488
		c5.234,0,9.496-4.252,9.496-9.488C649.492,499.363,645.232,495.109,639.997,495.109z"/>
	<path fill="#231F20" d="M498.675,353.562c-8.72,0-15.811,7.092-15.811,15.812c0,8.724,7.091,15.812,15.811,15.812
		c8.724,0,15.814-7.09,15.814-15.812C514.49,360.654,507.399,353.562,498.675,353.562z"/>
	<path fill="#231F20" d="M781.32,353.562c-8.719,0-15.811,7.092-15.811,15.812c0,8.724,7.092,15.812,15.811,15.812
		c8.717,0,15.814-7.09,15.814-15.812C797.137,360.654,790.037,353.562,781.32,353.562z"/>
	<path fill="#231F20" d="M710.35,280.06c-10.471,0-18.979,8.511-18.979,18.973c0,10.467,8.508,18.977,18.979,18.977
		c10.457,0,18.971-8.51,18.971-18.977C729.32,288.571,720.807,280.06,710.35,280.06z"/>
	<path fill="#231F20" d="M567.846,280.06c-10.468,0-18.977,8.511-18.977,18.973c0,10.467,8.509,18.977,18.977,18.977
		c10.459,0,18.974-8.51,18.974-18.977C586.819,288.571,578.305,280.06,567.846,280.06z"/>
	<path fill="#231F20" d="M710.348,427.68c-6.977,0-12.652,5.672-12.652,12.646c0,6.974,5.678,12.652,12.652,12.652
		c6.979,0,12.646-5.68,12.646-12.652C722.994,433.353,717.324,427.68,710.348,427.68z"/>
	<path fill="#231F20" d="M567.846,427.68c-6.976,0-12.655,5.672-12.655,12.646c0,6.974,5.681,12.652,12.655,12.652
		c6.973,0,12.645-5.68,12.645-12.652C580.491,433.353,574.818,427.68,567.846,427.68z"/>
</g>
</svg>
