<?xml version="1.0" encoding="UTF-8" standalone="no"?>
<!-- Generator: Adobe Illustrator 16.0.0, SVG Export Plug-In . SVG Version: 6.00 Build 0)  -->

<svg
   xmlns:dc="http://purl.org/dc/elements/1.1/"
   xmlns:cc="http://creativecommons.org/ns#"
   xmlns:rdf="http://www.w3.org/1999/02/22-rdf-syntax-ns#"
   xmlns:svg="http://www.w3.org/2000/svg"
   xmlns="http://www.w3.org/2000/svg"
   xmlns:sodipodi="http://sodipodi.sourceforge.net/DTD/sodipodi-0.dtd"
   xmlns:inkscape="http://www.inkscape.org/namespaces/inkscape"
   version="1.1"
   id="Layer_1"
   x="0px"
   y="0px"
   width="800px"
   height="800px"
   viewBox="240 -40 800 800"
   enable-background="new 240 -40 800 800"
   xml:space="preserve"
   inkscape:version="0.91 r"
   sodipodi:docname="logo.svg"><metadata
     id="metadata27"><rdf:RDF><cc:Work
         rdf:about=""><dc:format>image/svg+xml</dc:format><dc:type
           rdf:resource="http://purl.org/dc/dcmitype/StillImage" /></cc:Work></rdf:RDF></metadata><defs
     id="defs25" /><sodipodi:namedview
     pagecolor="#ffffff"
     bordercolor="#666666"
     borderopacity="1"
     objecttolerance="10"
     gridtolerance="10"
     guidetolerance="10"
     inkscape:pageopacity="0"
     inkscape:pageshadow="2"
     inkscape:window-width="1870"
     inkscape:window-height="1361"
     id="namedview23"
     showgrid="false"
     showguides="false"
     inkscape:zoom="0.295"
     inkscape:cx="406.77966"
     inkscape:cy="400"
     inkscape:window-x="650"
     inkscape:window-y="144"
     inkscape:window-maximized="0"
     inkscape:current-layer="Layer_1"><inkscape:grid
       type="xygrid"
       id="grid3355" /></sodipodi:namedview><g
     id="g3"
     transform="matrix(2.4300065,0,0,2.4300065,-915.20276,-514.80164)"><path
       d="m 639.995,205.917 c -12.199,0 -22.127,9.93 -22.127,22.137 0,12.206 9.928,22.14 22.127,22.14 12.207,0 22.146,-9.934 22.146,-22.14 0.002,-12.207 -9.94,-22.137 -22.146,-22.137 z"
       id="path5"
       inkscape:connector-curvature="0"
       style="fill:#231f20" /><path
       d="m 639.997,352.323 c -8.718,0 -15.81,7.091 -15.81,15.812 0,8.722 7.092,15.812 15.81,15.812 8.718,0 15.816,-7.091 15.816,-15.812 -10e-4,-8.721 -7.098,-15.812 -15.816,-15.812 z"
       id="path7"
       inkscape:connector-curvature="0"
       style="fill:#231f20" /><path
       d="m 639.997,495.109 c -5.227,0 -9.479,4.254 -9.479,9.485 0,5.236 4.255,9.488 9.479,9.488 5.234,0 9.496,-4.252 9.496,-9.488 -0.001,-5.231 -4.261,-9.485 -9.496,-9.485 z"
       id="path9"
       inkscape:connector-curvature="0"
       style="fill:#231f20" /><path
       d="m 498.675,353.562 c -8.72,0 -15.811,7.092 -15.811,15.812 0,8.724 7.091,15.812 15.811,15.812 8.724,0 15.814,-7.09 15.814,-15.812 10e-4,-8.72 -7.09,-15.812 -15.814,-15.812 z"
       id="path11"
       inkscape:connector-curvature="0"
       style="fill:#231f20" /><path
       d="m 781.32,353.562 c -8.719,0 -15.811,7.092 -15.811,15.812 0,8.724 7.092,15.812 15.811,15.812 8.717,0 15.814,-7.09 15.814,-15.812 0.003,-8.72 -7.097,-15.812 -15.814,-15.812 z"
       id="path13"
       inkscape:connector-curvature="0"
       style="fill:#231f20" /><path
       d="m 710.35,280.06 c -10.471,0 -18.979,8.511 -18.979,18.973 0,10.467 8.508,18.977 18.979,18.977 10.457,0 18.971,-8.51 18.971,-18.977 -10e-4,-10.462 -8.514,-18.973 -18.971,-18.973 z"
       id="path15"
       inkscape:connector-curvature="0"
       style="fill:#231f20" /><path
       d="m 567.846,280.06 c -10.468,0 -18.977,8.511 -18.977,18.973 0,10.467 8.509,18.977 18.977,18.977 10.459,0 18.974,-8.51 18.974,-18.977 -0.001,-10.462 -8.515,-18.973 -18.974,-18.973 z"
       id="path17"
       inkscape:connector-curvature="0"
       style="fill:#231f20" /><path
       d="m 710.348,427.68 c -6.977,0 -12.652,5.672 -12.652,12.646 0,6.974 5.678,12.652 12.652,12.652 6.979,0 12.646,-5.68 12.646,-12.652 0,-6.973 -5.67,-12.646 -12.646,-12.646 z"
       id="path19"
       inkscape:connector-curvature="0"
       style="fill:#231f20" /><path
       d="m 567.846,427.68 c -6.976,0 -12.655,5.672 -12.655,12.646 0,6.974 5.681,12.652 12.655,12.652 6.973,0 12.645,-5.68 12.645,-12.652 0,-6.973 -5.673,-12.646 -12.645,-12.646 z"
       id="path21"
       inkscape:connector-curvature="0"
       style="fill:#231f20" /></g></svg>