<?xml version="1.0" encoding="utf-8"?>
<!-- Generator: Adobe Illustrator 19.0.0, SVG Export Plug-In . SVG Version: 6.00 Build 0)  -->
<svg version="1.1" id="Layer_1" xmlns="http://www.w3.org/2000/svg" xmlns:xlink="http://www.w3.org/1999/xlink" x="0px" y="0px"
	 viewBox="576.9 201.9 314.3 308.2" style="enable-background:new 576.9 201.9 314.3 308.2;" xml:space="preserve">
<style type="text/css">
	.st0{fill:#FFFFFF;}
</style>
<g>
	<path class="st0" d="M734,201.9c-12.2,0-22.1,9.9-22.1,22.1c0,12.2,9.9,22.1,22.1,22.1c12.2,0,22.1-9.9,22.1-22.1
		C756.1,211.8,746.2,201.9,734,201.9z"/>
	<path class="st0" d="M734,348.3c-8.7,0-15.8,7.1-15.8,15.8c0,8.7,7.1,15.8,15.8,15.8s15.8-7.1,15.8-15.8
		C749.8,355.4,742.7,348.3,734,348.3z"/>
	<path class="st0" d="M734,491.1c-5.2,0-9.5,4.3-9.5,9.5c0,5.2,4.3,9.5,9.5,9.5c5.2,0,9.5-4.3,9.5-9.5
		C743.5,495.4,739.2,491.1,734,491.1z"/>
	<path class="st0" d="M592.7,349.6c-8.7,0-15.8,7.1-15.8,15.8c0,8.7,7.1,15.8,15.8,15.8c8.7,0,15.8-7.1,15.8-15.8
		C608.5,356.7,601.4,349.6,592.7,349.6z"/>
	<path class="st0" d="M875.3,349.6c-8.7,0-15.8,7.1-15.8,15.8c0,8.7,7.1,15.8,15.8,15.8c8.7,0,15.8-7.1,15.8-15.8
		C891.1,356.7,884,349.6,875.3,349.6z"/>
	<path class="st0" d="M804.3,276.1c-10.5,0-19,8.5-19,19c0,10.5,8.5,19,19,19c10.5,0,19-8.5,19-19
		C823.3,284.6,814.8,276.1,804.3,276.1z"/>
	<path class="st0" d="M661.8,276.1c-10.5,0-19,8.5-19,19c0,10.5,8.5,19,19,19c10.5,0,19-8.5,19-19
		C680.8,284.6,672.3,276.1,661.8,276.1z"/>
	<path class="st0" d="M804.3,423.7c-7,0-12.7,5.7-12.7,12.6s5.7,12.7,12.7,12.7c7,0,12.6-5.7,12.6-12.7
		C817,429.4,811.3,423.7,804.3,423.7z"/>
	<path class="st0" d="M661.8,423.7c-7,0-12.7,5.7-12.7,12.6s5.7,12.7,12.7,12.7c7,0,12.6-5.7,12.6-12.7
		C674.5,429.4,668.8,423.7,661.8,423.7z"/>
</g>
</svg>
