<?xml version="1.0" encoding="UTF-8" standalone="no"?>
<!-- Generator: Adobe Illustrator 16.0.0, SVG Export Plug-In . SVG Version: 6.00 Build 0)  -->

<svg
   xmlns:dc="http://purl.org/dc/elements/1.1/"
   xmlns:cc="http://creativecommons.org/ns#"
   xmlns:rdf="http://www.w3.org/1999/02/22-rdf-syntax-ns#"
   xmlns:svg="http://www.w3.org/2000/svg"
   xmlns="http://www.w3.org/2000/svg"
   xmlns:sodipodi="http://sodipodi.sourceforge.net/DTD/sodipodi-0.dtd"
   xmlns:inkscape="http://www.inkscape.org/namespaces/inkscape"
   version="1.1"
   id="Layer_1"
   x="0px"
   y="0px"
   width="160"
   height="160"
   viewBox="0 0 160 160"
   enable-background="new 0 0 400 400"
   xml:space="preserve"
   inkscape:version="0.91 r"
   sodipodi:docname="yours_logo_black.svg"><metadata
     id="metadata73"><rdf:RDF><cc:Work
         rdf:about=""><dc:format>image/svg+xml</dc:format><dc:type
           rdf:resource="http://purl.org/dc/dcmitype/StillImage" /><dc:title></dc:title></cc:Work></rdf:RDF></metadata><defs
     id="defs71" /><sodipodi:namedview
     pagecolor="#ffffff"
     bordercolor="#666666"
     borderopacity="1"
     objecttolerance="10"
     gridtolerance="10"
     guidetolerance="10"
     inkscape:pageopacity="0"
     inkscape:pageshadow="2"
     inkscape:window-width="2518"
     inkscape:window-height="1452"
     id="namedview69"
     showgrid="false"
     inkscape:zoom="1.668772"
     inkscape:cx="453.07405"
     inkscape:cy="177.58407"
     inkscape:window-x="193"
     inkscape:window-y="18"
     inkscape:window-maximized="0"
     inkscape:current-layer="Layer_1" /><g
     id="g37"
     transform="translate(-120,-94.235)"><g
       id="g39" /><g
       id="g51"><path
         d="m 200,106.74 c 37.216,0 67.494,30.278 67.494,67.495 0,37.216 -30.277,67.495 -67.494,67.495 -37.217,0 -67.494,-30.278 -67.494,-67.495 0,-37.217 30.278,-67.495 67.494,-67.495 m 0,-8 c -41.695,0 -75.494,33.798 -75.494,75.495 0,41.694 33.799,75.495 75.494,75.495 41.695,0 75.494,-33.801 75.494,-75.495 0,-41.696 -33.799,-75.495 -75.494,-75.495 l 0,0 z"
         id="path53"
         inkscape:connector-curvature="0" /></g><g
       id="g55"><path
         d="m 201.941,176.403 c -1.968,-0.379 -3.892,-1.553 -5.12,-3.335 -1.272,-1.843 -1.605,-3.96 -1.272,-6.116 l -0.009,0.007 c 0.662,-4.309 -2.097,-8.26 -6.354,-9.039 -4.301,-0.792 -8.284,1.987 -9.073,6.291 -0.79,4.304 2.136,8.392 6.5,9.14 l 0.006,0.007 c 1.462,0.732 3.82,1.738 5.066,3.539 1.27,1.844 1.545,4.165 1.213,6.321 l 0.012,-0.01 c -1.114,3.658 2.019,8.148 6.275,8.93 4.303,0.792 8.379,-2.133 9.167,-6.438 0.794,-4.305 -2.106,-8.508 -6.411,-9.297 z"
         id="path57"
         inkscape:connector-curvature="0" /><path
         d="m 216.111,164.36 c -0.193,-1.335 0.414,-2.083 1.537,-3.61 1.166,-1.58 3.643,-4.165 5.789,-4.551 l 0,0 c 4.289,-0.774 6.902,-2.791 6.254,-7.067 -0.65,-4.327 -4.708,-7.413 -9.03,-6.761 -4.328,0.655 -8.661,4.504 -6.661,8.895 l 0,0.005 c 0,1.63 0.032,4.507 -1.106,6.049 -1.162,1.577 -1.771,2.728 -2.993,2.687 l -0.019,0.006 c -2.865,0.475 -4.803,3.119 -4.365,6.004 0.439,2.919 3.178,4.898 6.092,4.459 2.921,-0.445 4.944,-3.197 4.502,-6.116 z"
         id="path59"
         inkscape:connector-curvature="0"
         style="fill:none" /><circle
         cx="177.425"
         cy="149.748"
         r="7.592"
         id="circle61" /><path
         d="m 205.354,202.788 c -1.068,-1.113 -1.002,-2.211 -0.977,-4.373 0.029,-2.242 0.061,-5.819 1.578,-7.385 l 0,0 c 3.031,-3.129 3.98,-6.291 0.959,-9.388 -3.051,-3.136 -8.352,-3.848 -11.482,-0.796 C 192.299,183.9 192,188.892 195,191.39 l 0,0.006 c 1,1.322 2.559,4.207 2.531,6.394 -0.031,2.239 0.245,4.013 -0.917,4.79 l 0.028,0.168 c -2.341,2.348 -2.36,6.162 -0.036,8.55 2.354,2.417 6.221,2.467 8.631,0.117 2.414,-2.355 2.468,-6.215 0.117,-8.627 z"
         id="path63"
         inkscape:connector-curvature="0"
         style="fill:none" /><path
         d="m 216.902,163.872 c -0.148,-1.749 0.535,-3.199 1.916,-4.864 1.43,-1.726 3.375,-2.621 5.541,-2.886 l -0.01,-0.007 c 4.326,-0.533 7.379,-4.262 6.973,-8.571 -0.408,-4.354 -4.164,-7.433 -8.52,-7.023 -4.357,0.41 -7.496,4.336 -7.031,8.739 l -0.004,0.007 c -0.307,1.606 -0.635,4.149 -2.029,5.837 -1.43,1.723 -2.836,2.532 -4.732,2.766 l 0.012,0.007 c -3.35,-0.069 -6.391,3.641 -6.035,7.416 0.355,3.817 3.793,6.557 7.609,6.195 3.818,-0.355 6.67,-3.799 6.31,-7.616 z"
         id="path65"
         inkscape:connector-curvature="0" /><path
         d="m 206.699,201.646 c -1.379,-1.453 -2.258,-3.65 -2.219,-5.813 0.039,-2.239 1.002,-4.833 2.527,-5.833 l -0.012,0 c 3.049,-3 3.105,-7.814 0.098,-10.928 -3.035,-3.148 -8.398,-3.148 -11.547,-0.11 -3.148,3.039 -3.547,8.127 -0.547,11.277 l 0,0.008 c 0,1.447 2.602,3.639 2.566,5.827 -0.041,2.238 -0.915,4.286 -2.44,5.845 l 0.142,-0.002 c -3.036,2.326 -3.041,7.801 -0.035,10.915 3.037,3.149 8.086,3.146 11.232,0.104 3.154,-3.037 3.276,-8.141 0.235,-11.29 z"
         id="path67"
         inkscape:connector-curvature="0" /></g></g></svg>